<svg xmlns="http://www.w3.org/2000/svg" width="1024" height="1024" viewBox="0 0 1024 1024">
  <defs>
    <radialGradient id="void" cx="50%" cy="50%" r="65%">
      <stop offset="0%" stop-color="#1a4a8a" stop-opacity="0.95"/>
      <stop offset="55%" stop-color="#020a20" stop-opacity="0.75"/>
      <stop offset="100%" stop-color="#000" stop-opacity="1"/>
    </radialGradient>
    <radialGradient id="halo" cx="50%" cy="50%" r="50%">
      <stop offset="0%" stop-color="#1a4a8a" stop-opacity="0.55"/>
      <stop offset="100%" stop-color="#1a4a8a" stop-opacity="0"/>
    </radialGradient>
    <filter id="glow" x="-50%" y="-50%" width="200%" height="200%">
      <feGaussianBlur stdDeviation="14"/>
    </filter>
    <filter id="softglow"><feGaussianBlur stdDeviation="4"/></filter>
  </defs>
  <rect width="1024" height="1024" fill="url(#void)"/>
  <circle cx="512" cy="512" r="460" fill="url(#halo)"/><circle cx="141.7" cy="874.0" r="0.51" fill="#fff" opacity="0.32"/><circle cx="119.5" cy="630.6" r="1.63" fill="#fff" opacity="0.63"/><circle cx="849.2" cy="420.0" r="1.61" fill="#fff" opacity="0.62"/><circle cx="196.2" cy="816.9" r="1.30" fill="#fff" opacity="0.88"/><circle cx="550.0" cy="184.7" r="1.63" fill="#fff" opacity="0.34"/><circle cx="167.2" cy="143.3" r="1.21" fill="#fff" opacity="0.77"/><circle cx="270.2" cy="258.8" r="1.62" fill="#fff" opacity="0.51"/><circle cx="574.7" cy="348.5" r="0.61" fill="#fff" opacity="0.58"/><circle cx="1001.0" cy="360.1" r="0.32" fill="#fff" opacity="0.48"/><circle cx="196.5" cy="848.4" r="0.41" fill="#fff" opacity="0.32"/><circle cx="300.4" cy="832.1" r="0.34" fill="#fff" opacity="0.78"/><circle cx="718.0" cy="931.7" r="1.68" fill="#fff" opacity="0.58"/><circle cx="352.1" cy="269.2" r="0.78" fill="#fff" opacity="0.81"/><circle cx="835.4" cy="509.7" r="0.53" fill="#fff" opacity="0.79"/><circle cx="121.9" cy="208.6" r="0.78" fill="#fff" opacity="0.70"/><circle cx="308.9" cy="737.2" r="1.17" fill="#fff" opacity="0.39"/><circle cx="826.7" cy="163.1" r="0.48" fill="#fff" opacity="0.57"/><circle cx="207.5" cy="768.1" r="0.72" fill="#fff" opacity="0.61"/><circle cx="663.6" cy="318.5" r="1.03" fill="#fff" opacity="0.42"/><circle cx="991.1" cy="524.4" r="0.71" fill="#fff" opacity="0.80"/><circle cx="255.5" cy="23.4" r="1.02" fill="#fff" opacity="0.85"/><circle cx="535.4" cy="234.4" r="0.76" fill="#fff" opacity="0.51"/><circle cx="230.7" cy="761.6" r="1.33" fill="#fff" opacity="0.41"/><circle cx="369.0" cy="380.8" r="0.43" fill="#fff" opacity="0.80"/><circle cx="280.5" cy="384.9" r="0.90" fill="#fff" opacity="0.79"/><circle cx="982.0" cy="221.0" r="1.53" fill="#fff" opacity="0.77"/><circle cx="697.2" cy="522.4" r="1.62" fill="#fff" opacity="0.57"/><circle cx="136.5" cy="224.8" r="0.67" fill="#fff" opacity="0.27"/><circle cx="618.9" cy="812.4" r="0.85" fill="#fff" opacity="0.69"/><circle cx="814.6" cy="946.4" r="0.70" fill="#fff" opacity="0.32"/><circle cx="181.9" cy="122.8" r="1.21" fill="#fff" opacity="0.63"/><circle cx="679.3" cy="652.2" r="1.09" fill="#fff" opacity="0.75"/><circle cx="818.4" cy="693.7" r="0.34" fill="#fff" opacity="0.30"/><circle cx="599.3" cy="749.6" r="0.40" fill="#fff" opacity="0.77"/><circle cx="900.4" cy="626.9" r="1.53" fill="#fff" opacity="0.84"/><circle cx="970.9" cy="839.5" r="1.26" fill="#fff" opacity="0.78"/><circle cx="740.1" cy="283.1" r="1.40" fill="#fff" opacity="0.34"/><circle cx="56.8" cy="698.4" r="0.86" fill="#fff" opacity="0.24"/><circle cx="505.7" cy="111.6" r="0.35" fill="#fff" opacity="0.76"/><circle cx="712.6" cy="559.0" r="0.99" fill="#fff" opacity="0.55"/><circle cx="66.6" cy="960.4" r="0.94" fill="#fff" opacity="0.23"/><circle cx="507.2" cy="671.7" r="0.69" fill="#fff" opacity="0.48"/><circle cx="151.2" cy="568.5" r="0.76" fill="#fff" opacity="0.58"/><circle cx="272.0" cy="967.3" r="1.47" fill="#fff" opacity="0.50"/><circle cx="253.4" cy="282.8" r="1.68" fill="#fff" opacity="0.71"/><circle cx="905.9" cy="1005.8" r="1.25" fill="#fff" opacity="0.36"/><circle cx="572.5" cy="50.9" r="1.20" fill="#fff" opacity="0.52"/><circle cx="735.0" cy="467.8" r="1.42" fill="#fff" opacity="0.48"/><circle cx="166.9" cy="1021.6" r="1.56" fill="#fff" opacity="0.78"/><circle cx="329.6" cy="414.0" r="0.69" fill="#fff" opacity="0.60"/><circle cx="20.6" cy="81.9" r="0.66" fill="#fff" opacity="0.74"/><circle cx="936.2" cy="473.3" r="0.65" fill="#fff" opacity="0.80"/><circle cx="658.1" cy="143.1" r="1.34" fill="#fff" opacity="0.60"/><circle cx="326.4" cy="868.8" r="1.38" fill="#fff" opacity="0.48"/><circle cx="603.1" cy="368.8" r="0.45" fill="#fff" opacity="0.78"/><circle cx="402.8" cy="17.0" r="1.67" fill="#fff" opacity="0.63"/><circle cx="929.8" cy="42.9" r="0.71" fill="#fff" opacity="0.71"/><circle cx="875.4" cy="364.4" r="0.73" fill="#fff" opacity="0.27"/><circle cx="1021.7" cy="715.1" r="0.47" fill="#fff" opacity="0.37"/><circle cx="1014.2" cy="396.8" r="0.81" fill="#fff" opacity="0.28"/><circle cx="365.3" cy="658.7" r="0.42" fill="#fff" opacity="0.62"/><circle cx="462.8" cy="473.1" r="1.63" fill="#fff" opacity="0.51"/><circle cx="453.1" cy="376.1" r="1.26" fill="#fff" opacity="0.56"/><circle cx="749.7" cy="230.8" r="0.32" fill="#fff" opacity="0.25"/><circle cx="745.4" cy="325.3" r="1.09" fill="#fff" opacity="0.84"/><circle cx="794.3" cy="376.1" r="0.32" fill="#fff" opacity="0.27"/><circle cx="840.3" cy="552.0" r="1.52" fill="#fff" opacity="0.42"/><circle cx="534.7" cy="160.5" r="0.77" fill="#fff" opacity="0.59"/><circle cx="403.5" cy="84.9" r="0.48" fill="#fff" opacity="0.24"/><circle cx="599.9" cy="936.4" r="0.34" fill="#fff" opacity="0.39"/><circle cx="121.1" cy="671.7" r="0.72" fill="#fff" opacity="0.24"/><circle cx="875.0" cy="555.9" r="0.63" fill="#fff" opacity="0.63"/><circle cx="570.8" cy="987.5" r="1.56" fill="#fff" opacity="0.33"/><circle cx="196.7" cy="519.5" r="1.22" fill="#fff" opacity="0.75"/><circle cx="257.4" cy="1007.2" r="1.56" fill="#fff" opacity="0.44"/><circle cx="822.9" cy="842.2" r="1.30" fill="#fff" opacity="0.77"/><circle cx="444.5" cy="359.4" r="0.47" fill="#fff" opacity="0.90"/><circle cx="236.8" cy="1017.6" r="1.07" fill="#fff" opacity="0.40"/><circle cx="779.4" cy="451.2" r="0.76" fill="#fff" opacity="0.40"/><circle cx="499.2" cy="267.4" r="0.36" fill="#fff" opacity="0.74"/><circle cx="485.2" cy="252.5" r="1.48" fill="#fff" opacity="0.80"/><circle cx="710.5" cy="5.5" r="1.16" fill="#fff" opacity="0.36"/><circle cx="1005.8" cy="338.4" r="0.51" fill="#fff" opacity="0.35"/><circle cx="348.0" cy="287.2" r="0.59" fill="#fff" opacity="0.85"/><circle cx="984.8" cy="560.8" r="0.75" fill="#fff" opacity="0.24"/><circle cx="407.3" cy="100.2" r="1.62" fill="#fff" opacity="0.59"/><circle cx="246.5" cy="331.8" r="0.70" fill="#fff" opacity="0.25"/><circle cx="296.9" cy="437.5" r="1.03" fill="#fff" opacity="0.67"/><circle cx="595.5" cy="641.9" r="1.24" fill="#fff" opacity="0.62"/><circle cx="147.9" cy="250.7" r="1.56" fill="#fff" opacity="0.21"/><circle cx="262.7" cy="875.6" r="1.67" fill="#fff" opacity="0.46"/><circle cx="13.2" cy="706.8" r="0.53" fill="#fff" opacity="0.59"/><circle cx="468.5" cy="882.8" r="0.35" fill="#fff" opacity="0.30"/><circle cx="831.2" cy="116.9" r="1.14" fill="#fff" opacity="0.78"/><circle cx="283.9" cy="992.8" r="0.91" fill="#fff" opacity="0.43"/><circle cx="716.7" cy="711.5" r="1.03" fill="#fff" opacity="0.20"/><circle cx="40.5" cy="841.6" r="1.23" fill="#fff" opacity="0.44"/><circle cx="1002.7" cy="687.3" r="0.43" fill="#fff" opacity="0.65"/><circle cx="295.6" cy="818.1" r="0.35" fill="#fff" opacity="0.88"/><circle cx="25.9" cy="941.8" r="0.67" fill="#fff" opacity="0.85"/><circle cx="512" cy="512" r="420" fill="none" stroke="#66ccff" stroke-opacity="0.35" stroke-width="2"/><circle cx="512.0" cy="92.0" r="6" fill="#aaeeff" opacity="0.9" filter="url(#softglow)"/><circle cx="512.0" cy="92.0" r="3" fill="#fff"/><circle cx="672.7" cy="124.0" r="6" fill="#aaeeff" opacity="0.9" filter="url(#softglow)"/><circle cx="672.7" cy="124.0" r="3" fill="#fff"/><circle cx="809.0" cy="215.0" r="6" fill="#aaeeff" opacity="0.9" filter="url(#softglow)"/><circle cx="809.0" cy="215.0" r="3" fill="#fff"/><circle cx="900.0" cy="351.3" r="6" fill="#aaeeff" opacity="0.9" filter="url(#softglow)"/><circle cx="900.0" cy="351.3" r="3" fill="#fff"/><circle cx="932.0" cy="512.0" r="6" fill="#aaeeff" opacity="0.9" filter="url(#softglow)"/><circle cx="932.0" cy="512.0" r="3" fill="#fff"/><circle cx="900.0" cy="672.7" r="6" fill="#aaeeff" opacity="0.9" filter="url(#softglow)"/><circle cx="900.0" cy="672.7" r="3" fill="#fff"/><circle cx="809.0" cy="809.0" r="6" fill="#aaeeff" opacity="0.9" filter="url(#softglow)"/><circle cx="809.0" cy="809.0" r="3" fill="#fff"/><circle cx="672.7" cy="900.0" r="6" fill="#aaeeff" opacity="0.9" filter="url(#softglow)"/><circle cx="672.7" cy="900.0" r="3" fill="#fff"/><circle cx="512.0" cy="932.0" r="6" fill="#aaeeff" opacity="0.9" filter="url(#softglow)"/><circle cx="512.0" cy="932.0" r="3" fill="#fff"/><circle cx="351.3" cy="900.0" r="6" fill="#aaeeff" opacity="0.9" filter="url(#softglow)"/><circle cx="351.3" cy="900.0" r="3" fill="#fff"/><circle cx="215.0" cy="809.0" r="6" fill="#aaeeff" opacity="0.9" filter="url(#softglow)"/><circle cx="215.0" cy="809.0" r="3" fill="#fff"/><circle cx="124.0" cy="672.7" r="6" fill="#aaeeff" opacity="0.9" filter="url(#softglow)"/><circle cx="124.0" cy="672.7" r="3" fill="#fff"/><circle cx="92.0" cy="512.0" r="6" fill="#aaeeff" opacity="0.9" filter="url(#softglow)"/><circle cx="92.0" cy="512.0" r="3" fill="#fff"/><circle cx="124.0" cy="351.3" r="6" fill="#aaeeff" opacity="0.9" filter="url(#softglow)"/><circle cx="124.0" cy="351.3" r="3" fill="#fff"/><circle cx="215.0" cy="215.0" r="6" fill="#aaeeff" opacity="0.9" filter="url(#softglow)"/><circle cx="215.0" cy="215.0" r="3" fill="#fff"/><circle cx="351.3" cy="124.0" r="6" fill="#aaeeff" opacity="0.9" filter="url(#softglow)"/><circle cx="351.3" cy="124.0" r="3" fill="#fff"/><defs><radialGradient id="ice" cx="40%" cy="35%"><stop offset="0%" stop-color="#cceeff"/><stop offset="60%" stop-color="#3380cc"/><stop offset="100%" stop-color="#0a1a3a"/></radialGradient></defs><polygon points="512.0,312.0 685.2,412.0 685.2,612.0 512.0,712.0 338.8,612.0 338.8,412.0 " fill="#66ccff" opacity="0.5" filter="url(#glow)"/><polygon points="512.0,312.0 685.2,412.0 685.2,612.0 512.0,712.0 338.8,612.0 338.8,412.0 " fill="url(#ice)" stroke="#aaeeff" stroke-width="3"/><polygon points="378.1,391.1 395.3,374.4 276.7,269.3" fill="#cceeff" opacity="0.92" stroke="#fff" stroke-width="1.5"/><polygon points="407.7,364.8 428.1,352.3 339.5,230.7" fill="#cceeff" opacity="0.92" stroke="#fff" stroke-width="1.5"/><polygon points="442.3,345.6 465.0,337.8 407.7,207.4" fill="#cceeff" opacity="0.92" stroke="#fff" stroke-width="1.5"/><polygon points="480.3,334.4 504.2,331.8 477.5,199.9" fill="#cceeff" opacity="0.92" stroke="#fff" stroke-width="1.5"/><polygon points="519.8,331.8 543.7,334.4 546.5,199.9" fill="#cceeff" opacity="0.92" stroke="#fff" stroke-width="1.5"/><polygon points="559.0,337.8 581.7,345.6 616.3,207.4" fill="#cceeff" opacity="0.92" stroke="#fff" stroke-width="1.5"/><polygon points="595.9,352.3 616.3,364.8 684.5,230.7" fill="#cceeff" opacity="0.92" stroke="#fff" stroke-width="1.5"/><polygon points="628.7,374.4 645.9,391.1 747.3,269.3" fill="#cceeff" opacity="0.92" stroke="#fff" stroke-width="1.5"/><circle cx="512" cy="512" r="80" fill="#000"/><circle cx="512" cy="512" r="68" fill="#aaeeff" opacity="0.85"/><circle cx="512" cy="512" r="40" fill="#fff"/><circle cx="507" cy="502" r="18" fill="#0a2a5a"/><g transform="translate(629 345)" opacity="0.73"><line x1="0" y1="0" x2="5.2" y2="0.0" stroke="#cceeff" stroke-width="1"/><line x1="0" y1="0" x2="2.6" y2="4.5" stroke="#cceeff" stroke-width="1"/><line x1="0" y1="0" x2="-2.6" y2="4.5" stroke="#cceeff" stroke-width="1"/><line x1="0" y1="0" x2="-5.2" y2="0.0" stroke="#cceeff" stroke-width="1"/><line x1="0" y1="0" x2="-2.6" y2="-4.5" stroke="#cceeff" stroke-width="1"/><line x1="0" y1="0" x2="2.6" y2="-4.5" stroke="#cceeff" stroke-width="1"/></g><g transform="translate(48 534)" opacity="0.77"><line x1="0" y1="0" x2="8.7" y2="0.0" stroke="#cceeff" stroke-width="1"/><line x1="0" y1="0" x2="4.3" y2="7.5" stroke="#cceeff" stroke-width="1"/><line x1="0" y1="0" x2="-4.3" y2="7.5" stroke="#cceeff" stroke-width="1"/><line x1="0" y1="0" x2="-8.7" y2="0.0" stroke="#cceeff" stroke-width="1"/><line x1="0" y1="0" x2="-4.3" y2="-7.5" stroke="#cceeff" stroke-width="1"/><line x1="0" y1="0" x2="4.3" y2="-7.5" stroke="#cceeff" stroke-width="1"/></g><g transform="translate(779 255)" opacity="0.79"><line x1="0" y1="0" x2="4.7" y2="0.0" stroke="#cceeff" stroke-width="1"/><line x1="0" y1="0" x2="2.3" y2="4.1" stroke="#cceeff" stroke-width="1"/><line x1="0" y1="0" x2="-2.3" y2="4.1" stroke="#cceeff" stroke-width="1"/><line x1="0" y1="0" x2="-4.7" y2="0.0" stroke="#cceeff" stroke-width="1"/><line x1="0" y1="0" x2="-2.3" y2="-4.1" stroke="#cceeff" stroke-width="1"/><line x1="0" y1="0" x2="2.3" y2="-4.1" stroke="#cceeff" stroke-width="1"/></g><g transform="translate(874 512)" opacity="0.58"><line x1="0" y1="0" x2="3.6" y2="0.0" stroke="#cceeff" stroke-width="1"/><line x1="0" y1="0" x2="1.8" y2="3.1" stroke="#cceeff" stroke-width="1"/><line x1="0" y1="0" x2="-1.8" y2="3.1" stroke="#cceeff" stroke-width="1"/><line x1="0" y1="0" x2="-3.6" y2="0.0" stroke="#cceeff" stroke-width="1"/><line x1="0" y1="0" x2="-1.8" y2="-3.1" stroke="#cceeff" stroke-width="1"/><line x1="0" y1="0" x2="1.8" y2="-3.1" stroke="#cceeff" stroke-width="1"/></g><g transform="translate(213 545)" opacity="0.50"><line x1="0" y1="0" x2="7.5" y2="0.0" stroke="#cceeff" stroke-width="1"/><line x1="0" y1="0" x2="3.8" y2="6.5" stroke="#cceeff" stroke-width="1"/><line x1="0" y1="0" x2="-3.8" y2="6.5" stroke="#cceeff" stroke-width="1"/><line x1="0" y1="0" x2="-7.5" y2="0.0" stroke="#cceeff" stroke-width="1"/><line x1="0" y1="0" x2="-3.8" y2="-6.5" stroke="#cceeff" stroke-width="1"/><line x1="0" y1="0" x2="3.8" y2="-6.5" stroke="#cceeff" stroke-width="1"/></g><g transform="translate(899 114)" opacity="0.71"><line x1="0" y1="0" x2="5.8" y2="0.0" stroke="#cceeff" stroke-width="1"/><line x1="0" y1="0" x2="2.9" y2="5.0" stroke="#cceeff" stroke-width="1"/><line x1="0" y1="0" x2="-2.9" y2="5.0" stroke="#cceeff" stroke-width="1"/><line x1="0" y1="0" x2="-5.8" y2="0.0" stroke="#cceeff" stroke-width="1"/><line x1="0" y1="0" x2="-2.9" y2="-5.0" stroke="#cceeff" stroke-width="1"/><line x1="0" y1="0" x2="2.9" y2="-5.0" stroke="#cceeff" stroke-width="1"/></g><g transform="translate(733 430)" opacity="0.88"><line x1="0" y1="0" x2="3.2" y2="0.0" stroke="#cceeff" stroke-width="1"/><line x1="0" y1="0" x2="1.6" y2="2.7" stroke="#cceeff" stroke-width="1"/><line x1="0" y1="0" x2="-1.6" y2="2.7" stroke="#cceeff" stroke-width="1"/><line x1="0" y1="0" x2="-3.2" y2="0.0" stroke="#cceeff" stroke-width="1"/><line x1="0" y1="0" x2="-1.6" y2="-2.7" stroke="#cceeff" stroke-width="1"/><line x1="0" y1="0" x2="1.6" y2="-2.7" stroke="#cceeff" stroke-width="1"/></g><g transform="translate(275 25)" opacity="0.74"><line x1="0" y1="0" x2="7.2" y2="0.0" stroke="#cceeff" stroke-width="1"/><line x1="0" y1="0" x2="3.6" y2="6.2" stroke="#cceeff" stroke-width="1"/><line x1="0" y1="0" x2="-3.6" y2="6.2" stroke="#cceeff" stroke-width="1"/><line x1="0" y1="0" x2="-7.2" y2="0.0" stroke="#cceeff" stroke-width="1"/><line x1="0" y1="0" x2="-3.6" y2="-6.2" stroke="#cceeff" stroke-width="1"/><line x1="0" y1="0" x2="3.6" y2="-6.2" stroke="#cceeff" stroke-width="1"/></g><g transform="translate(515 330)" opacity="0.70"><line x1="0" y1="0" x2="4.4" y2="0.0" stroke="#cceeff" stroke-width="1"/><line x1="0" y1="0" x2="2.2" y2="3.8" stroke="#cceeff" stroke-width="1"/><line x1="0" y1="0" x2="-2.2" y2="3.8" stroke="#cceeff" stroke-width="1"/><line x1="0" y1="0" x2="-4.4" y2="0.0" stroke="#cceeff" stroke-width="1"/><line x1="0" y1="0" x2="-2.2" y2="-3.8" stroke="#cceeff" stroke-width="1"/><line x1="0" y1="0" x2="2.2" y2="-3.8" stroke="#cceeff" stroke-width="1"/></g><g transform="translate(723 518)" opacity="0.50"><line x1="0" y1="0" x2="3.5" y2="0.0" stroke="#cceeff" stroke-width="1"/><line x1="0" y1="0" x2="1.7" y2="3.0" stroke="#cceeff" stroke-width="1"/><line x1="0" y1="0" x2="-1.7" y2="3.0" stroke="#cceeff" stroke-width="1"/><line x1="0" y1="0" x2="-3.5" y2="0.0" stroke="#cceeff" stroke-width="1"/><line x1="0" y1="0" x2="-1.7" y2="-3.0" stroke="#cceeff" stroke-width="1"/><line x1="0" y1="0" x2="1.7" y2="-3.0" stroke="#cceeff" stroke-width="1"/></g><g transform="translate(882 982)" opacity="0.59"><line x1="0" y1="0" x2="7.1" y2="0.0" stroke="#cceeff" stroke-width="1"/><line x1="0" y1="0" x2="3.5" y2="6.1" stroke="#cceeff" stroke-width="1"/><line x1="0" y1="0" x2="-3.5" y2="6.1" stroke="#cceeff" stroke-width="1"/><line x1="0" y1="0" x2="-7.1" y2="0.0" stroke="#cceeff" stroke-width="1"/><line x1="0" y1="0" x2="-3.5" y2="-6.1" stroke="#cceeff" stroke-width="1"/><line x1="0" y1="0" x2="3.5" y2="-6.1" stroke="#cceeff" stroke-width="1"/></g><g transform="translate(887 936)" opacity="0.61"><line x1="0" y1="0" x2="6.8" y2="0.0" stroke="#cceeff" stroke-width="1"/><line x1="0" y1="0" x2="3.4" y2="5.9" stroke="#cceeff" stroke-width="1"/><line x1="0" y1="0" x2="-3.4" y2="5.9" stroke="#cceeff" stroke-width="1"/><line x1="0" y1="0" x2="-6.8" y2="0.0" stroke="#cceeff" stroke-width="1"/><line x1="0" y1="0" x2="-3.4" y2="-5.9" stroke="#cceeff" stroke-width="1"/><line x1="0" y1="0" x2="3.4" y2="-5.9" stroke="#cceeff" stroke-width="1"/></g><g transform="translate(807 145)" opacity="0.86"><line x1="0" y1="0" x2="3.9" y2="0.0" stroke="#cceeff" stroke-width="1"/><line x1="0" y1="0" x2="2.0" y2="3.4" stroke="#cceeff" stroke-width="1"/><line x1="0" y1="0" x2="-2.0" y2="3.4" stroke="#cceeff" stroke-width="1"/><line x1="0" y1="0" x2="-3.9" y2="0.0" stroke="#cceeff" stroke-width="1"/><line x1="0" y1="0" x2="-2.0" y2="-3.4" stroke="#cceeff" stroke-width="1"/><line x1="0" y1="0" x2="2.0" y2="-3.4" stroke="#cceeff" stroke-width="1"/></g><g transform="translate(738 743)" opacity="0.71"><line x1="0" y1="0" x2="8.5" y2="0.0" stroke="#cceeff" stroke-width="1"/><line x1="0" y1="0" x2="4.3" y2="7.4" stroke="#cceeff" stroke-width="1"/><line x1="0" y1="0" x2="-4.3" y2="7.4" stroke="#cceeff" stroke-width="1"/><line x1="0" y1="0" x2="-8.5" y2="0.0" stroke="#cceeff" stroke-width="1"/><line x1="0" y1="0" x2="-4.3" y2="-7.4" stroke="#cceeff" stroke-width="1"/><line x1="0" y1="0" x2="4.3" y2="-7.4" stroke="#cceeff" stroke-width="1"/></g><g transform="translate(119 269)" opacity="0.55"><line x1="0" y1="0" x2="4.7" y2="0.0" stroke="#cceeff" stroke-width="1"/><line x1="0" y1="0" x2="2.3" y2="4.0" stroke="#cceeff" stroke-width="1"/><line x1="0" y1="0" x2="-2.3" y2="4.0" stroke="#cceeff" stroke-width="1"/><line x1="0" y1="0" x2="-4.7" y2="0.0" stroke="#cceeff" stroke-width="1"/><line x1="0" y1="0" x2="-2.3" y2="-4.0" stroke="#cceeff" stroke-width="1"/><line x1="0" y1="0" x2="2.3" y2="-4.0" stroke="#cceeff" stroke-width="1"/></g><g transform="translate(309 262)" opacity="0.43"><line x1="0" y1="0" x2="6.6" y2="0.0" stroke="#cceeff" stroke-width="1"/><line x1="0" y1="0" x2="3.3" y2="5.7" stroke="#cceeff" stroke-width="1"/><line x1="0" y1="0" x2="-3.3" y2="5.7" stroke="#cceeff" stroke-width="1"/><line x1="0" y1="0" x2="-6.6" y2="0.0" stroke="#cceeff" stroke-width="1"/><line x1="0" y1="0" x2="-3.3" y2="-5.7" stroke="#cceeff" stroke-width="1"/><line x1="0" y1="0" x2="3.3" y2="-5.7" stroke="#cceeff" stroke-width="1"/></g><g transform="translate(916 130)" opacity="0.44"><line x1="0" y1="0" x2="7.7" y2="0.0" stroke="#cceeff" stroke-width="1"/><line x1="0" y1="0" x2="3.9" y2="6.7" stroke="#cceeff" stroke-width="1"/><line x1="0" y1="0" x2="-3.9" y2="6.7" stroke="#cceeff" stroke-width="1"/><line x1="0" y1="0" x2="-7.7" y2="0.0" stroke="#cceeff" stroke-width="1"/><line x1="0" y1="0" x2="-3.9" y2="-6.7" stroke="#cceeff" stroke-width="1"/><line x1="0" y1="0" x2="3.9" y2="-6.7" stroke="#cceeff" stroke-width="1"/></g><g transform="translate(651 348)" opacity="0.61"><line x1="0" y1="0" x2="9.0" y2="0.0" stroke="#cceeff" stroke-width="1"/><line x1="0" y1="0" x2="4.5" y2="7.8" stroke="#cceeff" stroke-width="1"/><line x1="0" y1="0" x2="-4.5" y2="7.8" stroke="#cceeff" stroke-width="1"/><line x1="0" y1="0" x2="-9.0" y2="0.0" stroke="#cceeff" stroke-width="1"/><line x1="0" y1="0" x2="-4.5" y2="-7.8" stroke="#cceeff" stroke-width="1"/><line x1="0" y1="0" x2="4.5" y2="-7.8" stroke="#cceeff" stroke-width="1"/></g></svg>