<svg xmlns="http://www.w3.org/2000/svg" width="1024" height="1024" viewBox="0 0 1024 1024">
  <defs>
    <radialGradient id="void" cx="50%" cy="50%" r="65%">
      <stop offset="0%" stop-color="#5a2a8a" stop-opacity="0.95"/>
      <stop offset="55%" stop-color="#1a0a30" stop-opacity="0.75"/>
      <stop offset="100%" stop-color="#000" stop-opacity="1"/>
    </radialGradient>
    <radialGradient id="halo" cx="50%" cy="50%" r="50%">
      <stop offset="0%" stop-color="#5a2a8a" stop-opacity="0.55"/>
      <stop offset="100%" stop-color="#5a2a8a" stop-opacity="0"/>
    </radialGradient>
    <filter id="glow" x="-50%" y="-50%" width="200%" height="200%">
      <feGaussianBlur stdDeviation="14"/>
    </filter>
    <filter id="softglow"><feGaussianBlur stdDeviation="4"/></filter>
  </defs>
  <rect width="1024" height="1024" fill="url(#void)"/>
  <circle cx="512" cy="512" r="460" fill="url(#halo)"/><circle cx="304.8" cy="783.1" r="1.28" fill="#fff" opacity="0.74"/><circle cx="628.5" cy="896.9" r="0.34" fill="#fff" opacity="0.21"/><circle cx="176.1" cy="595.5" r="1.50" fill="#fff" opacity="0.35"/><circle cx="500.7" cy="231.1" r="1.66" fill="#fff" opacity="0.48"/><circle cx="810.7" cy="770.5" r="0.50" fill="#fff" opacity="0.26"/><circle cx="230.6" cy="179.8" r="1.36" fill="#fff" opacity="0.31"/><circle cx="196.8" cy="76.3" r="1.65" fill="#fff" opacity="0.31"/><circle cx="63.5" cy="600.4" r="0.52" fill="#fff" opacity="0.72"/><circle cx="436.5" cy="13.4" r="1.19" fill="#fff" opacity="0.83"/><circle cx="515.2" cy="470.5" r="0.82" fill="#fff" opacity="0.48"/><circle cx="74.1" cy="200.0" r="0.51" fill="#fff" opacity="0.78"/><circle cx="928.0" cy="791.5" r="1.56" fill="#fff" opacity="0.62"/><circle cx="737.2" cy="508.1" r="0.54" fill="#fff" opacity="0.82"/><circle cx="948.1" cy="137.0" r="0.52" fill="#fff" opacity="0.49"/><circle cx="873.3" cy="234.3" r="0.56" fill="#fff" opacity="0.40"/><circle cx="472.2" cy="705.5" r="0.93" fill="#fff" opacity="0.60"/><circle cx="712.1" cy="640.2" r="1.16" fill="#fff" opacity="0.85"/><circle cx="598.7" cy="727.1" r="1.19" fill="#fff" opacity="0.30"/><circle cx="458.0" cy="631.1" r="0.65" fill="#fff" opacity="0.64"/><circle cx="843.3" cy="319.8" r="1.11" fill="#fff" opacity="0.63"/><circle cx="189.7" cy="672.1" r="1.53" fill="#fff" opacity="0.73"/><circle cx="167.6" cy="935.1" r="0.32" fill="#fff" opacity="0.79"/><circle cx="520.6" cy="627.2" r="1.32" fill="#fff" opacity="0.82"/><circle cx="141.4" cy="305.7" r="0.64" fill="#fff" opacity="0.57"/><circle cx="926.7" cy="791.6" r="1.67" fill="#fff" opacity="0.55"/><circle cx="809.7" cy="576.6" r="0.57" fill="#fff" opacity="0.44"/><circle cx="968.8" cy="692.9" r="1.05" fill="#fff" opacity="0.72"/><circle cx="299.1" cy="506.3" r="1.27" fill="#fff" opacity="0.62"/><circle cx="730.4" cy="535.6" r="1.05" fill="#fff" opacity="0.20"/><circle cx="39.4" cy="94.4" r="0.35" fill="#fff" opacity="0.82"/><circle cx="759.9" cy="722.3" r="1.03" fill="#fff" opacity="0.86"/><circle cx="259.7" cy="521.2" r="0.62" fill="#fff" opacity="0.67"/><circle cx="508.5" cy="397.0" r="0.87" fill="#fff" opacity="0.71"/><circle cx="812.6" cy="300.9" r="0.52" fill="#fff" opacity="0.52"/><circle cx="551.9" cy="119.4" r="0.64" fill="#fff" opacity="0.79"/><circle cx="312.0" cy="797.4" r="1.69" fill="#fff" opacity="0.74"/><circle cx="535.1" cy="615.2" r="1.50" fill="#fff" opacity="0.64"/><circle cx="5.2" cy="812.1" r="1.52" fill="#fff" opacity="0.78"/><circle cx="678.5" cy="52.0" r="1.65" fill="#fff" opacity="0.47"/><circle cx="344.5" cy="961.2" r="0.98" fill="#fff" opacity="0.89"/><circle cx="773.2" cy="230.8" r="0.38" fill="#fff" opacity="0.76"/><circle cx="233.0" cy="476.2" r="1.14" fill="#fff" opacity="0.74"/><circle cx="190.0" cy="223.6" r="1.45" fill="#fff" opacity="0.29"/><circle cx="691.6" cy="76.1" r="1.43" fill="#fff" opacity="0.34"/><circle cx="831.8" cy="866.3" r="0.35" fill="#fff" opacity="0.39"/><circle cx="224.1" cy="158.9" r="0.78" fill="#fff" opacity="0.59"/><circle cx="182.2" cy="353.6" r="0.50" fill="#fff" opacity="0.82"/><circle cx="611.5" cy="177.9" r="1.59" fill="#fff" opacity="0.65"/><circle cx="39.6" cy="287.3" r="1.63" fill="#fff" opacity="0.84"/><circle cx="120.1" cy="559.2" r="0.35" fill="#fff" opacity="0.29"/><circle cx="163.4" cy="121.2" r="0.70" fill="#fff" opacity="0.26"/><circle cx="532.3" cy="169.9" r="1.45" fill="#fff" opacity="0.66"/><circle cx="425.3" cy="802.3" r="0.38" fill="#fff" opacity="0.72"/><circle cx="290.7" cy="792.0" r="0.80" fill="#fff" opacity="0.53"/><circle cx="62.7" cy="810.0" r="1.04" fill="#fff" opacity="0.29"/><circle cx="219.9" cy="327.4" r="1.19" fill="#fff" opacity="0.40"/><circle cx="282.5" cy="376.4" r="1.00" fill="#fff" opacity="0.58"/><circle cx="171.9" cy="557.1" r="0.43" fill="#fff" opacity="0.50"/><circle cx="601.5" cy="853.1" r="1.54" fill="#fff" opacity="0.33"/><circle cx="15.0" cy="399.1" r="0.97" fill="#fff" opacity="0.54"/><circle cx="648.7" cy="134.0" r="1.29" fill="#fff" opacity="0.51"/><circle cx="118.7" cy="371.5" r="0.60" fill="#fff" opacity="0.54"/><circle cx="314.7" cy="53.1" r="1.04" fill="#fff" opacity="0.40"/><circle cx="717.0" cy="252.3" r="1.62" fill="#fff" opacity="0.78"/><circle cx="289.8" cy="708.9" r="1.50" fill="#fff" opacity="0.64"/><circle cx="174.5" cy="827.3" r="1.09" fill="#fff" opacity="0.89"/><circle cx="681.5" cy="1014.3" r="1.62" fill="#fff" opacity="0.36"/><circle cx="911.0" cy="61.6" r="1.16" fill="#fff" opacity="0.83"/><circle cx="549.7" cy="90.0" r="1.20" fill="#fff" opacity="0.26"/><circle cx="237.9" cy="109.5" r="1.49" fill="#fff" opacity="0.46"/><circle cx="553.5" cy="361.2" r="0.82" fill="#fff" opacity="0.55"/><circle cx="714.8" cy="271.9" r="0.60" fill="#fff" opacity="0.44"/><circle cx="450.2" cy="97.8" r="1.64" fill="#fff" opacity="0.71"/><circle cx="83.3" cy="1019.1" r="1.26" fill="#fff" opacity="0.47"/><circle cx="996.9" cy="538.3" r="1.61" fill="#fff" opacity="0.88"/><circle cx="920.1" cy="443.6" r="0.63" fill="#fff" opacity="0.60"/><circle cx="182.5" cy="816.6" r="0.63" fill="#fff" opacity="0.77"/><circle cx="267.9" cy="497.7" r="0.58" fill="#fff" opacity="0.57"/><circle cx="877.4" cy="430.7" r="0.67" fill="#fff" opacity="0.30"/><circle cx="518.2" cy="11.7" r="1.25" fill="#fff" opacity="0.53"/><circle cx="616.2" cy="1020.3" r="1.61" fill="#fff" opacity="0.89"/><circle cx="110.2" cy="722.3" r="0.57" fill="#fff" opacity="0.37"/><circle cx="467.1" cy="921.6" r="0.72" fill="#fff" opacity="0.57"/><circle cx="1001.4" cy="740.8" r="1.50" fill="#fff" opacity="0.87"/><circle cx="455.6" cy="292.4" r="0.57" fill="#fff" opacity="0.64"/><circle cx="669.8" cy="663.6" r="1.47" fill="#fff" opacity="0.68"/><circle cx="313.1" cy="801.9" r="1.18" fill="#fff" opacity="0.47"/><circle cx="330.8" cy="753.0" r="1.04" fill="#fff" opacity="0.45"/><circle cx="11.0" cy="212.3" r="0.78" fill="#fff" opacity="0.23"/><circle cx="843.5" cy="798.6" r="0.97" fill="#fff" opacity="0.54"/><circle cx="399.6" cy="166.2" r="1.44" fill="#fff" opacity="0.52"/><circle cx="620.3" cy="67.7" r="1.64" fill="#fff" opacity="0.84"/><circle cx="760.2" cy="118.7" r="1.30" fill="#fff" opacity="0.83"/><circle cx="292.5" cy="626.1" r="0.69" fill="#fff" opacity="0.27"/><circle cx="151.6" cy="390.0" r="1.60" fill="#fff" opacity="0.23"/><circle cx="512.4" cy="366.0" r="0.54" fill="#fff" opacity="0.78"/><circle cx="878.5" cy="40.1" r="1.35" fill="#fff" opacity="0.86"/><circle cx="798.2" cy="129.0" r="0.63" fill="#fff" opacity="0.36"/><circle cx="81.2" cy="735.1" r="1.18" fill="#fff" opacity="0.90"/><circle cx="938.3" cy="700.4" r="0.83" fill="#fff" opacity="0.80"/><circle cx="957.2" cy="571.7" r="1.38" fill="#fff" opacity="0.52"/><circle cx="619.8" cy="718.3" r="0.99" fill="#fff" opacity="0.43"/><circle cx="985.1" cy="121.4" r="0.82" fill="#fff" opacity="0.82"/><circle cx="119.1" cy="787.1" r="0.90" fill="#fff" opacity="0.44"/><circle cx="863.7" cy="284.3" r="0.66" fill="#fff" opacity="0.27"/><circle cx="650.2" cy="823.8" r="0.96" fill="#fff" opacity="0.37"/><circle cx="235.6" cy="937.0" r="1.58" fill="#fff" opacity="0.78"/><circle cx="34.3" cy="217.4" r="1.62" fill="#fff" opacity="0.52"/><circle cx="748.5" cy="457.5" r="0.98" fill="#fff" opacity="0.85"/><circle cx="354.8" cy="392.3" r="1.35" fill="#fff" opacity="0.77"/><circle cx="777.1" cy="303.8" r="1.26" fill="#fff" opacity="0.73"/><circle cx="643.1" cy="21.1" r="1.60" fill="#fff" opacity="0.67"/><circle cx="333.1" cy="731.0" r="1.42" fill="#fff" opacity="0.34"/><circle cx="91.7" cy="263.9" r="0.44" fill="#fff" opacity="0.60"/><circle cx="136.1" cy="110.9" r="1.18" fill="#fff" opacity="0.30"/><circle cx="3.5" cy="814.7" r="1.47" fill="#fff" opacity="0.36"/><circle cx="31.8" cy="587.0" r="1.10" fill="#fff" opacity="0.58"/><circle cx="634.9" cy="736.2" r="1.58" fill="#fff" opacity="0.23"/><circle cx="112.9" cy="819.3" r="1.44" fill="#fff" opacity="0.78"/><circle cx="588.3" cy="730.3" r="0.68" fill="#fff" opacity="0.31"/><circle cx="512" cy="512" r="420" fill="none" stroke="#aa66ff" stroke-opacity="0.35" stroke-width="2"/><circle cx="512.0" cy="92.0" r="6" fill="#ffd66b" opacity="0.9" filter="url(#softglow)"/><circle cx="512.0" cy="92.0" r="3" fill="#fff"/><circle cx="655.6" cy="117.3" r="6" fill="#ffd66b" opacity="0.9" filter="url(#softglow)"/><circle cx="655.6" cy="117.3" r="3" fill="#fff"/><circle cx="782.0" cy="190.3" r="6" fill="#ffd66b" opacity="0.9" filter="url(#softglow)"/><circle cx="782.0" cy="190.3" r="3" fill="#fff"/><circle cx="875.7" cy="302.0" r="6" fill="#ffd66b" opacity="0.9" filter="url(#softglow)"/><circle cx="875.7" cy="302.0" r="3" fill="#fff"/><circle cx="925.6" cy="439.1" r="6" fill="#ffd66b" opacity="0.9" filter="url(#softglow)"/><circle cx="925.6" cy="439.1" r="3" fill="#fff"/><circle cx="925.6" cy="584.9" r="6" fill="#ffd66b" opacity="0.9" filter="url(#softglow)"/><circle cx="925.6" cy="584.9" r="3" fill="#fff"/><circle cx="875.7" cy="722.0" r="6" fill="#ffd66b" opacity="0.9" filter="url(#softglow)"/><circle cx="875.7" cy="722.0" r="3" fill="#fff"/><circle cx="782.0" cy="833.7" r="6" fill="#ffd66b" opacity="0.9" filter="url(#softglow)"/><circle cx="782.0" cy="833.7" r="3" fill="#fff"/><circle cx="655.6" cy="906.7" r="6" fill="#ffd66b" opacity="0.9" filter="url(#softglow)"/><circle cx="655.6" cy="906.7" r="3" fill="#fff"/><circle cx="512.0" cy="932.0" r="6" fill="#ffd66b" opacity="0.9" filter="url(#softglow)"/><circle cx="512.0" cy="932.0" r="3" fill="#fff"/><circle cx="368.4" cy="906.7" r="6" fill="#ffd66b" opacity="0.9" filter="url(#softglow)"/><circle cx="368.4" cy="906.7" r="3" fill="#fff"/><circle cx="242.0" cy="833.7" r="6" fill="#ffd66b" opacity="0.9" filter="url(#softglow)"/><circle cx="242.0" cy="833.7" r="3" fill="#fff"/><circle cx="148.3" cy="722.0" r="6" fill="#ffd66b" opacity="0.9" filter="url(#softglow)"/><circle cx="148.3" cy="722.0" r="3" fill="#fff"/><circle cx="98.4" cy="584.9" r="6" fill="#ffd66b" opacity="0.9" filter="url(#softglow)"/><circle cx="98.4" cy="584.9" r="3" fill="#fff"/><circle cx="98.4" cy="439.1" r="6" fill="#ffd66b" opacity="0.9" filter="url(#softglow)"/><circle cx="98.4" cy="439.1" r="3" fill="#fff"/><circle cx="148.3" cy="302.0" r="6" fill="#ffd66b" opacity="0.9" filter="url(#softglow)"/><circle cx="148.3" cy="302.0" r="3" fill="#fff"/><circle cx="242.0" cy="190.3" r="6" fill="#ffd66b" opacity="0.9" filter="url(#softglow)"/><circle cx="242.0" cy="190.3" r="3" fill="#fff"/><circle cx="368.4" cy="117.3" r="6" fill="#ffd66b" opacity="0.9" filter="url(#softglow)"/><circle cx="368.4" cy="117.3" r="3" fill="#fff"/><path d="M 512 512 Q 712 512 862 660 T 892 772" stroke="#aa44ff" stroke-width="14" stroke-linecap="round" fill="none" opacity="0.75" filter="url(#softglow)"/><path d="M 512 512 Q 712 512 862 660 T 892 772" stroke="#dd99ff" stroke-width="3" stroke-linecap="round" fill="none"/><path d="M 512 512 Q 653 653 655 864 T 597 964" stroke="#aa44ff" stroke-width="14" stroke-linecap="round" fill="none" opacity="0.75" filter="url(#softglow)"/><path d="M 512 512 Q 653 653 655 864 T 597 964" stroke="#dd99ff" stroke-width="3" stroke-linecap="round" fill="none"/><path d="M 512 512 Q 512 712 364 862 T 252 892" stroke="#aa44ff" stroke-width="14" stroke-linecap="round" fill="none" opacity="0.75" filter="url(#softglow)"/><path d="M 512 512 Q 512 712 364 862 T 252 892" stroke="#dd99ff" stroke-width="3" stroke-linecap="round" fill="none"/><path d="M 512 512 Q 371 653 160 655 T 60 597" stroke="#aa44ff" stroke-width="14" stroke-linecap="round" fill="none" opacity="0.75" filter="url(#softglow)"/><path d="M 512 512 Q 371 653 160 655 T 60 597" stroke="#dd99ff" stroke-width="3" stroke-linecap="round" fill="none"/><path d="M 512 512 Q 312 512 162 364 T 132 252" stroke="#aa44ff" stroke-width="14" stroke-linecap="round" fill="none" opacity="0.75" filter="url(#softglow)"/><path d="M 512 512 Q 312 512 162 364 T 132 252" stroke="#dd99ff" stroke-width="3" stroke-linecap="round" fill="none"/><path d="M 512 512 Q 371 371 369 160 T 427 60" stroke="#aa44ff" stroke-width="14" stroke-linecap="round" fill="none" opacity="0.75" filter="url(#softglow)"/><path d="M 512 512 Q 371 371 369 160 T 427 60" stroke="#dd99ff" stroke-width="3" stroke-linecap="round" fill="none"/><path d="M 512 512 Q 512 312 660 162 T 772 132" stroke="#aa44ff" stroke-width="14" stroke-linecap="round" fill="none" opacity="0.75" filter="url(#softglow)"/><path d="M 512 512 Q 512 312 660 162 T 772 132" stroke="#dd99ff" stroke-width="3" stroke-linecap="round" fill="none"/><path d="M 512 512 Q 653 371 864 369 T 964 427" stroke="#aa44ff" stroke-width="14" stroke-linecap="round" fill="none" opacity="0.75" filter="url(#softglow)"/><path d="M 512 512 Q 653 371 864 369 T 964 427" stroke="#dd99ff" stroke-width="3" stroke-linecap="round" fill="none"/><circle cx="512" cy="512" r="220" fill="#1a0033"/><circle cx="512" cy="512" r="200" fill="#aa44ff" opacity="0.6" filter="url(#glow)"/><circle cx="512" cy="512" r="170" fill="#fff" opacity="0.95"/><defs><radialGradient id="iris" cx="50%" cy="50%"><stop offset="0%" stop-color="#000"/><stop offset="70%" stop-color="#5a1a8a"/><stop offset="100%" stop-color="#aa44ff"/></radialGradient></defs><circle cx="512" cy="512" r="120" fill="url(#iris)"/><line x1="489.5" y1="389.0" x2="482.3" y2="349.7" stroke="#aa0033" stroke-width="1.2" opacity="0.7"/><line x1="463.9" y1="396.6" x2="448.5" y2="359.7" stroke="#aa0033" stroke-width="1.3" opacity="0.7"/><line x1="537.6" y1="634.3" x2="545.8" y2="673.5" stroke="#aa0033" stroke-width="1.6" opacity="0.7"/><line x1="493.3" y1="635.6" x2="487.3" y2="675.1" stroke="#aa0033" stroke-width="2.0" opacity="0.7"/><line x1="442.1" y1="408.3" x2="419.8" y2="375.2" stroke="#aa0033" stroke-width="1.1" opacity="0.7"/><line x1="388.9" y1="490.1" x2="349.6" y2="483.1" stroke="#aa0033" stroke-width="1.9" opacity="0.7"/><line x1="504.9" y1="387.2" x2="502.7" y2="347.3" stroke="#aa0033" stroke-width="1.3" opacity="0.7"/><line x1="514.1" y1="637.0" x2="514.8" y2="677.0" stroke="#aa0033" stroke-width="2.3" opacity="0.7"/><line x1="604.5" y1="427.9" x2="634.0" y2="400.9" stroke="#aa0033" stroke-width="2.1" opacity="0.7"/><line x1="633.1" y1="543.1" x2="671.8" y2="553.0" stroke="#aa0033" stroke-width="1.9" opacity="0.7"/><line x1="501.4" y1="387.4" x2="498.0" y2="347.6" stroke="#aa0033" stroke-width="1.2" opacity="0.7"/><line x1="636.0" y1="527.9" x2="675.7" y2="533.0" stroke="#aa0033" stroke-width="1.4" opacity="0.7"/><line x1="495.1" y1="635.9" x2="489.7" y2="675.5" stroke="#aa0033" stroke-width="2.1" opacity="0.7"/><line x1="623.3" y1="568.8" x2="659.0" y2="587.0" stroke="#aa0033" stroke-width="2.3" opacity="0.7"/><ellipse cx="512" cy="512" rx="35" ry="55" fill="#000"/><circle cx="497" cy="487" r="14" fill="#fff" opacity="0.85"/><circle cx="512" cy="232" r="5" fill="#fff" filter="url(#softglow)"/><circle cx="652" cy="270" r="5" fill="#fff" filter="url(#softglow)"/><circle cx="754" cy="372" r="5" fill="#fff" filter="url(#softglow)"/><circle cx="792" cy="512" r="5" fill="#fff" filter="url(#softglow)"/><circle cx="754" cy="652" r="5" fill="#fff" filter="url(#softglow)"/><circle cx="652" cy="754" r="5" fill="#fff" filter="url(#softglow)"/><circle cx="512" cy="792" r="5" fill="#fff" filter="url(#softglow)"/><circle cx="372" cy="754" r="5" fill="#fff" filter="url(#softglow)"/><circle cx="270" cy="652" r="5" fill="#fff" filter="url(#softglow)"/><circle cx="232" cy="512" r="5" fill="#fff" filter="url(#softglow)"/><circle cx="270" cy="372" r="5" fill="#fff" filter="url(#softglow)"/><circle cx="372" cy="270" r="5" fill="#fff" filter="url(#softglow)"/></svg>