<svg xmlns="http://www.w3.org/2000/svg" width="1024" height="1024" viewBox="0 0 1024 1024">
  <defs>
    <radialGradient id="void" cx="50%" cy="50%" r="65%">
      <stop offset="0%" stop-color="#5a1010" stop-opacity="0.95"/>
      <stop offset="55%" stop-color="#1a0000" stop-opacity="0.75"/>
      <stop offset="100%" stop-color="#000" stop-opacity="1"/>
    </radialGradient>
    <radialGradient id="halo" cx="50%" cy="50%" r="50%">
      <stop offset="0%" stop-color="#5a1010" stop-opacity="0.55"/>
      <stop offset="100%" stop-color="#5a1010" stop-opacity="0"/>
    </radialGradient>
    <filter id="glow" x="-50%" y="-50%" width="200%" height="200%">
      <feGaussianBlur stdDeviation="14"/>
    </filter>
    <filter id="softglow"><feGaussianBlur stdDeviation="4"/></filter>
  </defs>
  <rect width="1024" height="1024" fill="url(#void)"/>
  <circle cx="512" cy="512" r="460" fill="url(#halo)"/><circle cx="436.6" cy="982.7" r="1.65" fill="#fff" opacity="0.39"/><circle cx="579.5" cy="310.7" r="1.64" fill="#fff" opacity="0.72"/><circle cx="410.6" cy="721.0" r="0.87" fill="#fff" opacity="0.80"/><circle cx="386.6" cy="937.8" r="0.54" fill="#fff" opacity="0.43"/><circle cx="797.5" cy="725.8" r="1.53" fill="#fff" opacity="0.65"/><circle cx="103.2" cy="594.7" r="1.12" fill="#fff" opacity="0.43"/><circle cx="260.5" cy="325.5" r="0.61" fill="#fff" opacity="0.59"/><circle cx="1019.0" cy="419.5" r="1.59" fill="#fff" opacity="0.43"/><circle cx="265.4" cy="715.9" r="1.39" fill="#fff" opacity="0.44"/><circle cx="639.9" cy="821.4" r="1.44" fill="#fff" opacity="0.44"/><circle cx="425.1" cy="2.7" r="1.20" fill="#fff" opacity="0.74"/><circle cx="71.5" cy="629.7" r="1.14" fill="#fff" opacity="0.71"/><circle cx="50.0" cy="426.8" r="1.05" fill="#fff" opacity="0.56"/><circle cx="616.6" cy="912.9" r="0.51" fill="#fff" opacity="0.29"/><circle cx="81.0" cy="904.1" r="1.29" fill="#fff" opacity="0.79"/><circle cx="718.8" cy="782.0" r="1.18" fill="#fff" opacity="0.59"/><circle cx="410.9" cy="691.7" r="0.55" fill="#fff" opacity="0.53"/><circle cx="795.2" cy="599.2" r="1.69" fill="#fff" opacity="0.73"/><circle cx="6.7" cy="543.6" r="0.88" fill="#fff" opacity="0.66"/><circle cx="962.0" cy="14.6" r="1.26" fill="#fff" opacity="0.87"/><circle cx="107.3" cy="762.4" r="1.27" fill="#fff" opacity="0.39"/><circle cx="883.6" cy="779.6" r="0.93" fill="#fff" opacity="0.74"/><circle cx="326.6" cy="432.9" r="0.60" fill="#fff" opacity="0.90"/><circle cx="468.6" cy="985.3" r="1.09" fill="#fff" opacity="0.66"/><circle cx="634.6" cy="5.9" r="0.67" fill="#fff" opacity="0.33"/><circle cx="976.8" cy="159.8" r="0.81" fill="#fff" opacity="0.90"/><circle cx="286.7" cy="273.9" r="1.43" fill="#fff" opacity="0.79"/><circle cx="821.1" cy="613.9" r="1.17" fill="#fff" opacity="0.35"/><circle cx="786.5" cy="515.8" r="0.84" fill="#fff" opacity="0.74"/><circle cx="960.0" cy="525.7" r="0.56" fill="#fff" opacity="0.78"/><circle cx="541.6" cy="607.8" r="0.62" fill="#fff" opacity="0.50"/><circle cx="183.5" cy="23.1" r="0.38" fill="#fff" opacity="0.25"/><circle cx="31.0" cy="79.5" r="0.41" fill="#fff" opacity="0.51"/><circle cx="720.0" cy="791.6" r="0.85" fill="#fff" opacity="0.78"/><circle cx="384.5" cy="822.7" r="0.31" fill="#fff" opacity="0.66"/><circle cx="455.9" cy="1019.2" r="0.45" fill="#fff" opacity="0.45"/><circle cx="648.8" cy="515.5" r="1.03" fill="#fff" opacity="0.85"/><circle cx="931.6" cy="624.7" r="1.04" fill="#fff" opacity="0.45"/><circle cx="938.6" cy="892.6" r="1.57" fill="#fff" opacity="0.59"/><circle cx="963.2" cy="796.1" r="1.49" fill="#fff" opacity="0.61"/><circle cx="660.6" cy="898.3" r="0.79" fill="#fff" opacity="0.73"/><circle cx="871.2" cy="56.9" r="1.34" fill="#fff" opacity="0.32"/><circle cx="352.0" cy="268.2" r="1.53" fill="#fff" opacity="0.79"/><circle cx="810.5" cy="303.8" r="0.79" fill="#fff" opacity="0.21"/><circle cx="463.9" cy="246.7" r="1.20" fill="#fff" opacity="0.62"/><circle cx="470.5" cy="586.8" r="0.76" fill="#fff" opacity="0.34"/><circle cx="298.6" cy="80.8" r="1.44" fill="#fff" opacity="0.53"/><circle cx="976.5" cy="346.4" r="0.86" fill="#fff" opacity="0.56"/><circle cx="483.0" cy="79.3" r="0.68" fill="#fff" opacity="0.81"/><circle cx="630.5" cy="724.2" r="1.08" fill="#fff" opacity="0.87"/><circle cx="751.6" cy="77.5" r="0.66" fill="#fff" opacity="0.67"/><circle cx="490.4" cy="538.2" r="0.40" fill="#fff" opacity="0.37"/><circle cx="854.6" cy="311.8" r="0.75" fill="#fff" opacity="0.22"/><circle cx="572.8" cy="846.8" r="1.32" fill="#fff" opacity="0.41"/><circle cx="559.6" cy="985.8" r="0.66" fill="#fff" opacity="0.65"/><circle cx="312.9" cy="952.7" r="1.49" fill="#fff" opacity="0.32"/><circle cx="525.0" cy="1015.9" r="1.51" fill="#fff" opacity="0.86"/><circle cx="250.3" cy="897.9" r="1.30" fill="#fff" opacity="0.57"/><circle cx="730.9" cy="187.5" r="1.49" fill="#fff" opacity="0.49"/><circle cx="272.8" cy="510.9" r="1.44" fill="#fff" opacity="0.29"/><circle cx="512" cy="512" r="420" fill="none" stroke="#ff4444" stroke-opacity="0.35" stroke-width="2"/><circle cx="512.0" cy="92.0" r="6" fill="#ffd66b" opacity="0.9" filter="url(#softglow)"/><circle cx="512.0" cy="92.0" r="3" fill="#fff"/><circle cx="641.8" cy="112.6" r="6" fill="#ffd66b" opacity="0.9" filter="url(#softglow)"/><circle cx="641.8" cy="112.6" r="3" fill="#fff"/><circle cx="758.9" cy="172.2" r="6" fill="#ffd66b" opacity="0.9" filter="url(#softglow)"/><circle cx="758.9" cy="172.2" r="3" fill="#fff"/><circle cx="851.8" cy="265.1" r="6" fill="#ffd66b" opacity="0.9" filter="url(#softglow)"/><circle cx="851.8" cy="265.1" r="3" fill="#fff"/><circle cx="911.4" cy="382.2" r="6" fill="#ffd66b" opacity="0.9" filter="url(#softglow)"/><circle cx="911.4" cy="382.2" r="3" fill="#fff"/><circle cx="932.0" cy="512.0" r="6" fill="#ffd66b" opacity="0.9" filter="url(#softglow)"/><circle cx="932.0" cy="512.0" r="3" fill="#fff"/><circle cx="911.4" cy="641.8" r="6" fill="#ffd66b" opacity="0.9" filter="url(#softglow)"/><circle cx="911.4" cy="641.8" r="3" fill="#fff"/><circle cx="851.8" cy="758.9" r="6" fill="#ffd66b" opacity="0.9" filter="url(#softglow)"/><circle cx="851.8" cy="758.9" r="3" fill="#fff"/><circle cx="758.9" cy="851.8" r="6" fill="#ffd66b" opacity="0.9" filter="url(#softglow)"/><circle cx="758.9" cy="851.8" r="3" fill="#fff"/><circle cx="641.8" cy="911.4" r="6" fill="#ffd66b" opacity="0.9" filter="url(#softglow)"/><circle cx="641.8" cy="911.4" r="3" fill="#fff"/><circle cx="512.0" cy="932.0" r="6" fill="#ffd66b" opacity="0.9" filter="url(#softglow)"/><circle cx="512.0" cy="932.0" r="3" fill="#fff"/><circle cx="382.2" cy="911.4" r="6" fill="#ffd66b" opacity="0.9" filter="url(#softglow)"/><circle cx="382.2" cy="911.4" r="3" fill="#fff"/><circle cx="265.1" cy="851.8" r="6" fill="#ffd66b" opacity="0.9" filter="url(#softglow)"/><circle cx="265.1" cy="851.8" r="3" fill="#fff"/><circle cx="172.2" cy="758.9" r="6" fill="#ffd66b" opacity="0.9" filter="url(#softglow)"/><circle cx="172.2" cy="758.9" r="3" fill="#fff"/><circle cx="112.6" cy="641.8" r="6" fill="#ffd66b" opacity="0.9" filter="url(#softglow)"/><circle cx="112.6" cy="641.8" r="3" fill="#fff"/><circle cx="92.0" cy="512.0" r="6" fill="#ffd66b" opacity="0.9" filter="url(#softglow)"/><circle cx="92.0" cy="512.0" r="3" fill="#fff"/><circle cx="112.6" cy="382.2" r="6" fill="#ffd66b" opacity="0.9" filter="url(#softglow)"/><circle cx="112.6" cy="382.2" r="3" fill="#fff"/><circle cx="172.2" cy="265.1" r="6" fill="#ffd66b" opacity="0.9" filter="url(#softglow)"/><circle cx="172.2" cy="265.1" r="3" fill="#fff"/><circle cx="265.1" cy="172.2" r="6" fill="#ffd66b" opacity="0.9" filter="url(#softglow)"/><circle cx="265.1" cy="172.2" r="3" fill="#fff"/><circle cx="382.2" cy="112.6" r="6" fill="#ffd66b" opacity="0.9" filter="url(#softglow)"/><circle cx="382.2" cy="112.6" r="3" fill="#fff"/><defs><radialGradient id="mawbody" cx="40%" cy="35%"><stop offset="0%" stop-color="#552020"/><stop offset="60%" stop-color="#1a0000"/><stop offset="100%" stop-color="#000"/></radialGradient></defs><circle cx="512" cy="512" r="240" fill="#ff4444" opacity="0.5" filter="url(#glow)"/><circle cx="512" cy="512" r="220" fill="url(#mawbody)" stroke="#aa2222" stroke-width="2"/><defs><radialGradient id="mawthroat" cx="50%" cy="50%"><stop offset="0%" stop-color="#ffaa30"/><stop offset="40%" stop-color="#ff3300"/><stop offset="100%" stop-color="#330000"/></radialGradient></defs><ellipse cx="512" cy="512" rx="55" ry="170" fill="url(#mawthroat)" filter="url(#softglow)"/><ellipse cx="512" cy="512" rx="25" ry="120" fill="#000"/><polygon points="564.0,512.0 576.0,512.0 540.0,512.0" fill="#fff" opacity="0.95"/><polygon points="561.8,554.7 573.8,554.7 538.8,549.5" fill="#fff" opacity="0.95"/><polygon points="555.3,594.5 567.3,594.5 535.3,584.5" fill="#fff" opacity="0.95"/><polygon points="545.4,628.7 557.4,628.7 530.1,614.5" fill="#fff" opacity="0.95"/><polygon points="533.0,654.9 545.0,654.9 524.0,637.6" fill="#fff" opacity="0.95"/><polygon points="519.5,671.4 531.5,671.4 517.7,652.1" fill="#fff" opacity="0.95"/><polygon points="506.0,677.0 518.0,677.0 512.0,657.0" fill="#fff" opacity="0.95"/><polygon points="492.5,671.4 504.5,671.4 506.3,652.1" fill="#fff" opacity="0.95"/><polygon points="479.0,654.9 491.0,654.9 500.0,637.6" fill="#fff" opacity="0.95"/><polygon points="466.6,628.7 478.6,628.7 493.9,614.5" fill="#fff" opacity="0.95"/><polygon points="456.7,594.5 468.7,594.5 488.7,584.5" fill="#fff" opacity="0.95"/><polygon points="450.2,554.7 462.2,554.7 485.2,549.5" fill="#fff" opacity="0.95"/><polygon points="448.0,512.0 460.0,512.0 484.0,512.0" fill="#fff" opacity="0.95"/><polygon points="450.2,469.3 462.2,469.3 485.2,474.5" fill="#fff" opacity="0.95"/><polygon points="456.7,429.5 468.7,429.5 488.7,439.5" fill="#fff" opacity="0.95"/><polygon points="466.6,395.3 478.6,395.3 493.9,409.5" fill="#fff" opacity="0.95"/><polygon points="479.0,369.1 491.0,369.1 500.0,386.4" fill="#fff" opacity="0.95"/><polygon points="492.5,352.6 504.5,352.6 506.3,371.9" fill="#fff" opacity="0.95"/><polygon points="506.0,347.0 518.0,347.0 512.0,367.0" fill="#fff" opacity="0.95"/><polygon points="519.5,352.6 531.5,352.6 517.7,371.9" fill="#fff" opacity="0.95"/><polygon points="533.0,369.1 545.0,369.1 524.0,386.4" fill="#fff" opacity="0.95"/><polygon points="545.4,395.3 557.4,395.3 530.1,409.5" fill="#fff" opacity="0.95"/><polygon points="555.3,429.5 567.3,429.5 535.3,439.5" fill="#fff" opacity="0.95"/><polygon points="561.8,469.3 573.8,469.3 538.8,474.5" fill="#fff" opacity="0.95"/><path d="M 512 512 Q 668 668 689 848" stroke="#cc1010" stroke-width="12" fill="none" stroke-linecap="round" opacity="0.8" filter="url(#softglow)"/><path d="M 512 512 Q 356 668 176 689" stroke="#cc1010" stroke-width="12" fill="none" stroke-linecap="round" opacity="0.8" filter="url(#softglow)"/><path d="M 512 512 Q 356 356 335 176" stroke="#cc1010" stroke-width="12" fill="none" stroke-linecap="round" opacity="0.8" filter="url(#softglow)"/><path d="M 512 512 Q 668 356 848 335" stroke="#cc1010" stroke-width="12" fill="none" stroke-linecap="round" opacity="0.8" filter="url(#softglow)"/><circle cx="346" cy="656" r="1.9" fill="#ffaa30" opacity="0.36" filter="url(#softglow)"/><circle cx="533" cy="274" r="2.9" fill="#ffaa30" opacity="0.44" filter="url(#softglow)"/><circle cx="211" cy="779" r="3.3" fill="#ffaa30" opacity="0.38" filter="url(#softglow)"/><circle cx="639" cy="527" r="3.5" fill="#ffaa30" opacity="0.35" filter="url(#softglow)"/><circle cx="207" cy="445" r="2.1" fill="#ffaa30" opacity="0.54" filter="url(#softglow)"/><circle cx="790" cy="206" r="4.0" fill="#ffaa30" opacity="0.85" filter="url(#softglow)"/><circle cx="729" cy="352" r="3.1" fill="#ffaa30" opacity="0.46" filter="url(#softglow)"/><circle cx="399" cy="326" r="1.9" fill="#ffaa30" opacity="0.32" filter="url(#softglow)"/><circle cx="353" cy="685" r="2.7" fill="#ffaa30" opacity="0.36" filter="url(#softglow)"/><circle cx="404" cy="597" r="1.5" fill="#ffaa30" opacity="0.61" filter="url(#softglow)"/><circle cx="772" cy="724" r="3.5" fill="#ffaa30" opacity="0.54" filter="url(#softglow)"/><circle cx="190" cy="794" r="1.8" fill="#ffaa30" opacity="0.88" filter="url(#softglow)"/><circle cx="234" cy="659" r="3.9" fill="#ffaa30" opacity="0.51" filter="url(#softglow)"/><circle cx="548" cy="412" r="2.0" fill="#ffaa30" opacity="0.64" filter="url(#softglow)"/><circle cx="221" cy="611" r="3.8" fill="#ffaa30" opacity="0.37" filter="url(#softglow)"/><circle cx="360" cy="823" r="3.2" fill="#ffaa30" opacity="0.46" filter="url(#softglow)"/><circle cx="362" cy="471" r="3.0" fill="#ffaa30" opacity="0.59" filter="url(#softglow)"/><circle cx="837" cy="461" r="1.1" fill="#ffaa30" opacity="0.78" filter="url(#softglow)"/><circle cx="293" cy="730" r="3.3" fill="#ffaa30" opacity="0.32" filter="url(#softglow)"/><circle cx="383" cy="679" r="1.8" fill="#ffaa30" opacity="0.36" filter="url(#softglow)"/><circle cx="456" cy="317" r="3.0" fill="#ffaa30" opacity="0.41" filter="url(#softglow)"/><circle cx="240" cy="412" r="2.8" fill="#ffaa30" opacity="0.39" filter="url(#softglow)"/><circle cx="521" cy="162" r="2.9" fill="#ffaa30" opacity="0.34" filter="url(#softglow)"/><circle cx="800" cy="684" r="3.8" fill="#ffaa30" opacity="0.33" filter="url(#softglow)"/><circle cx="756" cy="566" r="2.1" fill="#ffaa30" opacity="0.71" filter="url(#softglow)"/><circle cx="596" cy="510" r="2.7" fill="#ffaa30" opacity="0.68" filter="url(#softglow)"/><circle cx="633" cy="670" r="2.5" fill="#ffaa30" opacity="0.67" filter="url(#softglow)"/><circle cx="614" cy="291" r="2.3" fill="#ffaa30" opacity="0.47" filter="url(#softglow)"/><circle cx="162" cy="364" r="1.1" fill="#ffaa30" opacity="0.74" filter="url(#softglow)"/><circle cx="231" cy="678" r="2.5" fill="#ffaa30" opacity="0.74" filter="url(#softglow)"/></svg>