<svg xmlns="http://www.w3.org/2000/svg" width="1024" height="1024" viewBox="0 0 1024 1024">
  <defs>
    <radialGradient id="void" cx="50%" cy="50%" r="65%">
      <stop offset="0%" stop-color="#5a2a00" stop-opacity="0.95"/>
      <stop offset="55%" stop-color="#1a0500" stop-opacity="0.75"/>
      <stop offset="100%" stop-color="#000" stop-opacity="1"/>
    </radialGradient>
    <radialGradient id="halo" cx="50%" cy="50%" r="50%">
      <stop offset="0%" stop-color="#5a2a00" stop-opacity="0.55"/>
      <stop offset="100%" stop-color="#5a2a00" stop-opacity="0"/>
    </radialGradient>
    <filter id="glow" x="-50%" y="-50%" width="200%" height="200%">
      <feGaussianBlur stdDeviation="14"/>
    </filter>
    <filter id="softglow"><feGaussianBlur stdDeviation="4"/></filter>
  </defs>
  <rect width="1024" height="1024" fill="url(#void)"/>
  <circle cx="512" cy="512" r="460" fill="url(#halo)"/><circle cx="229.1" cy="469.3" r="0.66" fill="#fff" opacity="0.50"/><circle cx="1017.0" cy="315.0" r="1.22" fill="#fff" opacity="0.29"/><circle cx="496.9" cy="161.4" r="1.47" fill="#fff" opacity="0.45"/><circle cx="274.9" cy="358.9" r="0.53" fill="#fff" opacity="0.46"/><circle cx="766.7" cy="750.1" r="1.40" fill="#fff" opacity="0.73"/><circle cx="160.6" cy="383.1" r="1.34" fill="#fff" opacity="0.63"/><circle cx="240.7" cy="308.1" r="0.74" fill="#fff" opacity="0.74"/><circle cx="257.7" cy="766.8" r="0.65" fill="#fff" opacity="0.46"/><circle cx="906.4" cy="289.2" r="1.01" fill="#fff" opacity="0.52"/><circle cx="315.0" cy="284.6" r="1.58" fill="#fff" opacity="0.29"/><circle cx="649.9" cy="459.4" r="1.52" fill="#fff" opacity="0.33"/><circle cx="933.2" cy="283.8" r="0.60" fill="#fff" opacity="0.35"/><circle cx="318.7" cy="649.8" r="1.17" fill="#fff" opacity="0.52"/><circle cx="1003.1" cy="857.8" r="1.18" fill="#fff" opacity="0.69"/><circle cx="644.4" cy="39.7" r="0.44" fill="#fff" opacity="0.57"/><circle cx="640.2" cy="895.1" r="1.63" fill="#fff" opacity="0.67"/><circle cx="104.1" cy="518.0" r="0.82" fill="#fff" opacity="0.47"/><circle cx="626.3" cy="997.1" r="1.02" fill="#fff" opacity="0.77"/><circle cx="633.5" cy="777.2" r="0.56" fill="#fff" opacity="0.60"/><circle cx="115.4" cy="722.6" r="0.40" fill="#fff" opacity="0.35"/><circle cx="363.0" cy="266.4" r="0.80" fill="#fff" opacity="0.45"/><circle cx="408.7" cy="318.3" r="1.36" fill="#fff" opacity="0.45"/><circle cx="299.5" cy="971.3" r="1.52" fill="#fff" opacity="0.42"/><circle cx="290.3" cy="646.3" r="0.91" fill="#fff" opacity="0.33"/><circle cx="551.2" cy="753.0" r="1.45" fill="#fff" opacity="0.84"/><circle cx="285.4" cy="283.0" r="0.78" fill="#fff" opacity="0.21"/><circle cx="315.8" cy="314.4" r="1.47" fill="#fff" opacity="0.33"/><circle cx="220.6" cy="342.8" r="0.42" fill="#fff" opacity="0.62"/><circle cx="456.6" cy="93.2" r="0.57" fill="#fff" opacity="0.79"/><circle cx="760.6" cy="269.8" r="1.65" fill="#fff" opacity="0.40"/><circle cx="940.6" cy="413.2" r="1.63" fill="#fff" opacity="0.57"/><circle cx="732.1" cy="89.0" r="1.67" fill="#fff" opacity="0.84"/><circle cx="970.2" cy="55.3" r="0.46" fill="#fff" opacity="0.64"/><circle cx="488.4" cy="525.6" r="1.26" fill="#fff" opacity="0.26"/><circle cx="322.6" cy="490.3" r="1.67" fill="#fff" opacity="0.59"/><circle cx="821.7" cy="698.0" r="0.41" fill="#fff" opacity="0.53"/><circle cx="932.8" cy="408.8" r="0.63" fill="#fff" opacity="0.37"/><circle cx="350.2" cy="622.0" r="1.14" fill="#fff" opacity="0.48"/><circle cx="398.1" cy="636.3" r="1.15" fill="#fff" opacity="0.49"/><circle cx="162.5" cy="203.9" r="1.52" fill="#fff" opacity="0.68"/><circle cx="512" cy="512" r="440" fill="none" stroke="#ffaa30" stroke-opacity="0.35" stroke-width="2"/><circle cx="512.0" cy="72.0" r="6" fill="#ffd66b" opacity="0.9" filter="url(#softglow)"/><circle cx="512.0" cy="72.0" r="3" fill="#fff"/><circle cx="648.0" cy="93.5" r="6" fill="#ffd66b" opacity="0.9" filter="url(#softglow)"/><circle cx="648.0" cy="93.5" r="3" fill="#fff"/><circle cx="770.6" cy="156.0" r="6" fill="#ffd66b" opacity="0.9" filter="url(#softglow)"/><circle cx="770.6" cy="156.0" r="3" fill="#fff"/><circle cx="868.0" cy="253.4" r="6" fill="#ffd66b" opacity="0.9" filter="url(#softglow)"/><circle cx="868.0" cy="253.4" r="3" fill="#fff"/><circle cx="930.5" cy="376.0" r="6" fill="#ffd66b" opacity="0.9" filter="url(#softglow)"/><circle cx="930.5" cy="376.0" r="3" fill="#fff"/><circle cx="952.0" cy="512.0" r="6" fill="#ffd66b" opacity="0.9" filter="url(#softglow)"/><circle cx="952.0" cy="512.0" r="3" fill="#fff"/><circle cx="930.5" cy="648.0" r="6" fill="#ffd66b" opacity="0.9" filter="url(#softglow)"/><circle cx="930.5" cy="648.0" r="3" fill="#fff"/><circle cx="868.0" cy="770.6" r="6" fill="#ffd66b" opacity="0.9" filter="url(#softglow)"/><circle cx="868.0" cy="770.6" r="3" fill="#fff"/><circle cx="770.6" cy="868.0" r="6" fill="#ffd66b" opacity="0.9" filter="url(#softglow)"/><circle cx="770.6" cy="868.0" r="3" fill="#fff"/><circle cx="648.0" cy="930.5" r="6" fill="#ffd66b" opacity="0.9" filter="url(#softglow)"/><circle cx="648.0" cy="930.5" r="3" fill="#fff"/><circle cx="512.0" cy="952.0" r="6" fill="#ffd66b" opacity="0.9" filter="url(#softglow)"/><circle cx="512.0" cy="952.0" r="3" fill="#fff"/><circle cx="376.0" cy="930.5" r="6" fill="#ffd66b" opacity="0.9" filter="url(#softglow)"/><circle cx="376.0" cy="930.5" r="3" fill="#fff"/><circle cx="253.4" cy="868.0" r="6" fill="#ffd66b" opacity="0.9" filter="url(#softglow)"/><circle cx="253.4" cy="868.0" r="3" fill="#fff"/><circle cx="156.0" cy="770.6" r="6" fill="#ffd66b" opacity="0.9" filter="url(#softglow)"/><circle cx="156.0" cy="770.6" r="3" fill="#fff"/><circle cx="93.5" cy="648.0" r="6" fill="#ffd66b" opacity="0.9" filter="url(#softglow)"/><circle cx="93.5" cy="648.0" r="3" fill="#fff"/><circle cx="72.0" cy="512.0" r="6" fill="#ffd66b" opacity="0.9" filter="url(#softglow)"/><circle cx="72.0" cy="512.0" r="3" fill="#fff"/><circle cx="93.5" cy="376.0" r="6" fill="#ffd66b" opacity="0.9" filter="url(#softglow)"/><circle cx="93.5" cy="376.0" r="3" fill="#fff"/><circle cx="156.0" cy="253.4" r="6" fill="#ffd66b" opacity="0.9" filter="url(#softglow)"/><circle cx="156.0" cy="253.4" r="3" fill="#fff"/><circle cx="253.4" cy="156.0" r="6" fill="#ffd66b" opacity="0.9" filter="url(#softglow)"/><circle cx="253.4" cy="156.0" r="3" fill="#fff"/><circle cx="376.0" cy="93.5" r="6" fill="#ffd66b" opacity="0.9" filter="url(#softglow)"/><circle cx="376.0" cy="93.5" r="3" fill="#fff"/><defs>
    <linearGradient id="wing" x1="0%" y1="0%" x2="0%" y2="100%">
      <stop offset="0%" stop-color="#ffeecc"/>
      <stop offset="40%" stop-color="#ffaa30"/>
      <stop offset="100%" stop-color="#aa1010"/>
    </linearGradient>
    <radialGradient id="bodyfire" cx="50%" cy="40%">
      <stop offset="0%" stop-color="#fff5aa"/>
      <stop offset="40%" stop-color="#ffaa30"/>
      <stop offset="100%" stop-color="#5a1010"/>
    </radialGradient>
  </defs><path d="M 512 532 Q 252 292 52 472 Q 92 542 132 712 Z" fill="url(#wing)" opacity="0.85" filter="url(#softglow)"/><path d="M 512 532 Q 772 292 972 472 Q 932 542 892 712 Z" fill="url(#wing)" opacity="0.85" filter="url(#softglow)"/><line x1="332" y1="412" x2="212" y2="452" stroke="#fff5aa" stroke-width="2" opacity="0.6"/><line x1="302" y1="442" x2="190" y2="487" stroke="#fff5aa" stroke-width="2" opacity="0.6"/><line x1="272" y1="472" x2="168" y2="522" stroke="#fff5aa" stroke-width="2" opacity="0.6"/><line x1="242" y1="502" x2="146" y2="557" stroke="#fff5aa" stroke-width="2" opacity="0.6"/><line x1="212" y1="532" x2="124" y2="592" stroke="#fff5aa" stroke-width="2" opacity="0.6"/><line x1="182" y1="562" x2="102" y2="627" stroke="#fff5aa" stroke-width="2" opacity="0.6"/><line x1="152" y1="592" x2="80" y2="662" stroke="#fff5aa" stroke-width="2" opacity="0.6"/><line x1="692" y1="412" x2="812" y2="452" stroke="#fff5aa" stroke-width="2" opacity="0.6"/><line x1="722" y1="442" x2="834" y2="487" stroke="#fff5aa" stroke-width="2" opacity="0.6"/><line x1="752" y1="472" x2="856" y2="522" stroke="#fff5aa" stroke-width="2" opacity="0.6"/><line x1="782" y1="502" x2="878" y2="557" stroke="#fff5aa" stroke-width="2" opacity="0.6"/><line x1="812" y1="532" x2="900" y2="592" stroke="#fff5aa" stroke-width="2" opacity="0.6"/><line x1="842" y1="562" x2="922" y2="627" stroke="#fff5aa" stroke-width="2" opacity="0.6"/><line x1="872" y1="592" x2="944" y2="662" stroke="#fff5aa" stroke-width="2" opacity="0.6"/><ellipse cx="512" cy="522" rx="120" ry="160" fill="url(#bodyfire)" filter="url(#softglow)"/><ellipse cx="512" cy="522" rx="120" ry="160" fill="none" stroke="#aa3300" stroke-width="2"/><circle cx="512" cy="422" r="55" fill="#ffaa30" stroke="#aa3300" stroke-width="2"/><polygon points="500,442 524,442 512,482" fill="#552200"/><circle cx="490" cy="412" r="9" fill="#ff2200"/><circle cx="490" cy="412" r="3" fill="#fff"/><circle cx="534" cy="412" r="9" fill="#ff2200"/><circle cx="534" cy="412" r="3" fill="#fff"/><path d="M 482 672 Q 332 792 422 872" stroke="#ff5500" stroke-width="14" fill="none" stroke-linecap="round" opacity="0.85" filter="url(#softglow)"/><path d="M 482 672 Q 332 792 422 872" stroke="#ffee88" stroke-width="3" fill="none" stroke-linecap="round"/><path d="M 512 672 Q 512 792 512 872" stroke="#ff5500" stroke-width="14" fill="none" stroke-linecap="round" opacity="0.85" filter="url(#softglow)"/><path d="M 512 672 Q 512 792 512 872" stroke="#ffee88" stroke-width="3" fill="none" stroke-linecap="round"/><path d="M 542 672 Q 692 792 602 872" stroke="#ff5500" stroke-width="14" fill="none" stroke-linecap="round" opacity="0.85" filter="url(#softglow)"/><path d="M 542 672 Q 692 792 602 872" stroke="#ffee88" stroke-width="3" fill="none" stroke-linecap="round"/><circle cx="558" cy="335" r="2.1" fill="#ffaa30" opacity="0.72"/><circle cx="572" cy="600" r="2.9" fill="#ffaa30" opacity="0.31"/><circle cx="754" cy="299" r="1.4" fill="#ffaa30" opacity="0.66"/><circle cx="999" cy="539" r="0.8" fill="#ffaa30" opacity="0.44"/><circle cx="411" cy="323" r="0.9" fill="#ffaa30" opacity="0.46"/><circle cx="58" cy="162" r="2.3" fill="#ffaa30" opacity="0.31"/><circle cx="768" cy="722" r="2.2" fill="#ffaa30" opacity="0.35"/><circle cx="613" cy="625" r="2.6" fill="#ffaa30" opacity="0.41"/><circle cx="998" cy="765" r="2.8" fill="#ffaa30" opacity="0.58"/><circle cx="320" cy="730" r="3.0" fill="#ffaa30" opacity="0.70"/><circle cx="622" cy="192" r="2.1" fill="#ffaa30" opacity="0.37"/><circle cx="221" cy="122" r="2.2" fill="#ffaa30" opacity="0.72"/><circle cx="199" cy="896" r="2.5" fill="#ffaa30" opacity="0.34"/><circle cx="17" cy="959" r="3.2" fill="#ffaa30" opacity="0.81"/><circle cx="3" cy="338" r="2.5" fill="#ffaa30" opacity="0.55"/><circle cx="384" cy="940" r="2.3" fill="#ffaa30" opacity="0.57"/><circle cx="328" cy="596" r="2.9" fill="#ffaa30" opacity="0.79"/><circle cx="670" cy="56" r="1.7" fill="#ffaa30" opacity="0.44"/><circle cx="930" cy="349" r="1.4" fill="#ffaa30" opacity="0.33"/><circle cx="855" cy="72" r="3.3" fill="#ffaa30" opacity="0.49"/><circle cx="17" cy="392" r="3.1" fill="#ffaa30" opacity="0.46"/><circle cx="225" cy="468" r="1.2" fill="#ffaa30" opacity="0.46"/><circle cx="466" cy="365" r="1.4" fill="#ffaa30" opacity="0.78"/><circle cx="1018" cy="918" r="1.6" fill="#ffaa30" opacity="0.80"/><circle cx="626" cy="799" r="2.7" fill="#ffaa30" opacity="0.61"/><circle cx="208" cy="71" r="1.4" fill="#ffaa30" opacity="0.64"/><circle cx="487" cy="598" r="3.1" fill="#ffaa30" opacity="0.56"/><circle cx="487" cy="594" r="1.6" fill="#ffaa30" opacity="0.62"/><circle cx="156" cy="686" r="3.2" fill="#ffaa30" opacity="0.86"/><circle cx="492" cy="86" r="1.6" fill="#ffaa30" opacity="0.73"/><circle cx="517" cy="756" r="3.3" fill="#ffaa30" opacity="0.89"/><circle cx="837" cy="960" r="2.4" fill="#ffaa30" opacity="0.58"/><circle cx="178" cy="616" r="1.2" fill="#ffaa30" opacity="0.70"/><circle cx="936" cy="519" r="2.8" fill="#ffaa30" opacity="0.67"/><circle cx="689" cy="799" r="2.1" fill="#ffaa30" opacity="0.89"/><circle cx="908" cy="545" r="3.3" fill="#ffaa30" opacity="0.39"/><circle cx="370" cy="407" r="3.0" fill="#ffaa30" opacity="0.60"/><circle cx="494" cy="645" r="1.7" fill="#ffaa30" opacity="0.55"/><circle cx="999" cy="882" r="1.7" fill="#ffaa30" opacity="0.58"/><circle cx="300" cy="1010" r="1.5" fill="#ffaa30" opacity="0.46"/></svg>