<svg xmlns="http://www.w3.org/2000/svg" width="1024" height="1024" viewBox="0 0 1024 1024">
  <defs>
    <radialGradient id="void" cx="50%" cy="50%" r="65%">
      <stop offset="0%" stop-color="#0a3a1a" stop-opacity="0.95"/>
      <stop offset="55%" stop-color="#01100a" stop-opacity="0.75"/>
      <stop offset="100%" stop-color="#000" stop-opacity="1"/>
    </radialGradient>
    <radialGradient id="halo" cx="50%" cy="50%" r="50%">
      <stop offset="0%" stop-color="#0a3a1a" stop-opacity="0.55"/>
      <stop offset="100%" stop-color="#0a3a1a" stop-opacity="0"/>
    </radialGradient>
    <filter id="glow" x="-50%" y="-50%" width="200%" height="200%">
      <feGaussianBlur stdDeviation="14"/>
    </filter>
    <filter id="softglow"><feGaussianBlur stdDeviation="4"/></filter>
  </defs>
  <rect width="1024" height="1024" fill="url(#void)"/>
  <circle cx="512" cy="512" r="460" fill="url(#halo)"/><circle cx="439.9" cy="921.3" r="0.55" fill="#fff" opacity="0.24"/><circle cx="835.6" cy="637.8" r="1.02" fill="#fff" opacity="0.56"/><circle cx="52.4" cy="1015.7" r="0.80" fill="#fff" opacity="0.89"/><circle cx="262.6" cy="823.5" r="1.20" fill="#fff" opacity="0.33"/><circle cx="979.9" cy="400.0" r="0.37" fill="#fff" opacity="0.28"/><circle cx="766.1" cy="904.9" r="0.79" fill="#fff" opacity="0.80"/><circle cx="600.3" cy="767.7" r="0.43" fill="#fff" opacity="0.63"/><circle cx="655.4" cy="646.6" r="1.04" fill="#fff" opacity="0.79"/><circle cx="245.1" cy="513.1" r="0.44" fill="#fff" opacity="0.71"/><circle cx="273.6" cy="779.0" r="1.12" fill="#fff" opacity="0.40"/><circle cx="677.5" cy="643.1" r="0.32" fill="#fff" opacity="0.39"/><circle cx="223.2" cy="712.5" r="0.61" fill="#fff" opacity="0.31"/><circle cx="388.3" cy="358.3" r="0.49" fill="#fff" opacity="0.82"/><circle cx="883.2" cy="66.8" r="0.77" fill="#fff" opacity="0.89"/><circle cx="472.7" cy="521.6" r="0.40" fill="#fff" opacity="0.70"/><circle cx="164.6" cy="86.5" r="0.90" fill="#fff" opacity="0.75"/><circle cx="17.9" cy="649.6" r="0.46" fill="#fff" opacity="0.63"/><circle cx="935.4" cy="460.6" r="1.60" fill="#fff" opacity="0.76"/><circle cx="863.2" cy="208.4" r="1.51" fill="#fff" opacity="0.38"/><circle cx="564.7" cy="359.3" r="0.53" fill="#fff" opacity="0.34"/><circle cx="937.2" cy="483.4" r="1.43" fill="#fff" opacity="0.89"/><circle cx="17.3" cy="183.7" r="1.31" fill="#fff" opacity="0.57"/><circle cx="990.6" cy="617.2" r="1.11" fill="#fff" opacity="0.27"/><circle cx="401.6" cy="339.9" r="1.49" fill="#fff" opacity="0.39"/><circle cx="839.7" cy="328.7" r="1.30" fill="#fff" opacity="0.42"/><circle cx="211.1" cy="470.2" r="0.62" fill="#fff" opacity="0.28"/><circle cx="955.7" cy="696.5" r="1.05" fill="#fff" opacity="0.78"/><circle cx="771.9" cy="45.9" r="0.67" fill="#fff" opacity="0.24"/><circle cx="218.4" cy="110.9" r="1.53" fill="#fff" opacity="0.71"/><circle cx="1020.6" cy="867.1" r="0.91" fill="#fff" opacity="0.38"/><circle cx="21.4" cy="269.3" r="1.48" fill="#fff" opacity="0.64"/><circle cx="703.0" cy="360.6" r="0.84" fill="#fff" opacity="0.56"/><circle cx="10.4" cy="680.3" r="0.31" fill="#fff" opacity="0.82"/><circle cx="583.9" cy="337.6" r="0.45" fill="#fff" opacity="0.39"/><circle cx="936.8" cy="891.8" r="0.67" fill="#fff" opacity="0.64"/><circle cx="707.8" cy="219.2" r="0.40" fill="#fff" opacity="0.70"/><circle cx="134.2" cy="397.8" r="0.76" fill="#fff" opacity="0.55"/><circle cx="764.7" cy="877.8" r="0.42" fill="#fff" opacity="0.76"/><circle cx="573.4" cy="698.3" r="1.54" fill="#fff" opacity="0.24"/><circle cx="640.8" cy="381.9" r="0.93" fill="#fff" opacity="0.68"/><circle cx="47.2" cy="946.4" r="0.88" fill="#fff" opacity="0.21"/><circle cx="279.0" cy="17.6" r="0.58" fill="#fff" opacity="0.33"/><circle cx="979.9" cy="743.0" r="1.10" fill="#fff" opacity="0.56"/><circle cx="90.4" cy="961.3" r="1.25" fill="#fff" opacity="0.44"/><circle cx="480.0" cy="506.5" r="0.34" fill="#fff" opacity="0.81"/><circle cx="69.1" cy="45.5" r="0.60" fill="#fff" opacity="0.84"/><circle cx="191.4" cy="461.6" r="0.61" fill="#fff" opacity="0.48"/><circle cx="695.1" cy="742.4" r="1.50" fill="#fff" opacity="0.28"/><circle cx="270.9" cy="565.2" r="0.81" fill="#fff" opacity="0.23"/><circle cx="709.0" cy="955.7" r="1.46" fill="#fff" opacity="0.42"/><circle cx="444.4" cy="526.4" r="0.72" fill="#fff" opacity="0.37"/><circle cx="122.1" cy="185.6" r="0.33" fill="#fff" opacity="0.58"/><circle cx="627.0" cy="367.5" r="0.49" fill="#fff" opacity="0.22"/><circle cx="364.2" cy="70.7" r="0.56" fill="#fff" opacity="0.32"/><circle cx="836.1" cy="797.4" r="1.66" fill="#fff" opacity="0.81"/><circle cx="851.3" cy="692.2" r="1.46" fill="#fff" opacity="0.70"/><circle cx="40.6" cy="328.4" r="1.35" fill="#fff" opacity="0.42"/><circle cx="1008.8" cy="1022.9" r="1.52" fill="#fff" opacity="0.89"/><circle cx="352.7" cy="905.2" r="0.59" fill="#fff" opacity="0.80"/><circle cx="720.3" cy="322.2" r="0.80" fill="#fff" opacity="0.58"/><circle cx="814.4" cy="317.5" r="0.91" fill="#fff" opacity="0.20"/><circle cx="263.2" cy="668.8" r="1.15" fill="#fff" opacity="0.86"/><circle cx="479.6" cy="190.6" r="1.00" fill="#fff" opacity="0.53"/><circle cx="806.7" cy="476.0" r="0.91" fill="#fff" opacity="0.55"/><circle cx="609.5" cy="546.0" r="1.20" fill="#fff" opacity="0.67"/><circle cx="670.3" cy="1014.1" r="0.81" fill="#fff" opacity="0.52"/><circle cx="422.8" cy="456.7" r="0.96" fill="#fff" opacity="0.55"/><circle cx="624.0" cy="940.7" r="1.16" fill="#fff" opacity="0.47"/><circle cx="578.1" cy="537.0" r="0.77" fill="#fff" opacity="0.68"/><circle cx="499.5" cy="269.4" r="1.58" fill="#fff" opacity="0.55"/><circle cx="512" cy="512" r="440" fill="none" stroke="#44dd66" stroke-opacity="0.35" stroke-width="2"/><circle cx="512.0" cy="72.0" r="6" fill="#aaffaa" opacity="0.9" filter="url(#softglow)"/><circle cx="512.0" cy="72.0" r="3" fill="#fff"/><circle cx="662.5" cy="98.5" r="6" fill="#aaffaa" opacity="0.9" filter="url(#softglow)"/><circle cx="662.5" cy="98.5" r="3" fill="#fff"/><circle cx="794.8" cy="174.9" r="6" fill="#aaffaa" opacity="0.9" filter="url(#softglow)"/><circle cx="794.8" cy="174.9" r="3" fill="#fff"/><circle cx="893.1" cy="292.0" r="6" fill="#aaffaa" opacity="0.9" filter="url(#softglow)"/><circle cx="893.1" cy="292.0" r="3" fill="#fff"/><circle cx="945.3" cy="435.6" r="6" fill="#aaffaa" opacity="0.9" filter="url(#softglow)"/><circle cx="945.3" cy="435.6" r="3" fill="#fff"/><circle cx="945.3" cy="588.4" r="6" fill="#aaffaa" opacity="0.9" filter="url(#softglow)"/><circle cx="945.3" cy="588.4" r="3" fill="#fff"/><circle cx="893.1" cy="732.0" r="6" fill="#aaffaa" opacity="0.9" filter="url(#softglow)"/><circle cx="893.1" cy="732.0" r="3" fill="#fff"/><circle cx="794.8" cy="849.1" r="6" fill="#aaffaa" opacity="0.9" filter="url(#softglow)"/><circle cx="794.8" cy="849.1" r="3" fill="#fff"/><circle cx="662.5" cy="925.5" r="6" fill="#aaffaa" opacity="0.9" filter="url(#softglow)"/><circle cx="662.5" cy="925.5" r="3" fill="#fff"/><circle cx="512.0" cy="952.0" r="6" fill="#aaffaa" opacity="0.9" filter="url(#softglow)"/><circle cx="512.0" cy="952.0" r="3" fill="#fff"/><circle cx="361.5" cy="925.5" r="6" fill="#aaffaa" opacity="0.9" filter="url(#softglow)"/><circle cx="361.5" cy="925.5" r="3" fill="#fff"/><circle cx="229.2" cy="849.1" r="6" fill="#aaffaa" opacity="0.9" filter="url(#softglow)"/><circle cx="229.2" cy="849.1" r="3" fill="#fff"/><circle cx="130.9" cy="732.0" r="6" fill="#aaffaa" opacity="0.9" filter="url(#softglow)"/><circle cx="130.9" cy="732.0" r="3" fill="#fff"/><circle cx="78.7" cy="588.4" r="6" fill="#aaffaa" opacity="0.9" filter="url(#softglow)"/><circle cx="78.7" cy="588.4" r="3" fill="#fff"/><circle cx="78.7" cy="435.6" r="6" fill="#aaffaa" opacity="0.9" filter="url(#softglow)"/><circle cx="78.7" cy="435.6" r="3" fill="#fff"/><circle cx="130.9" cy="292.0" r="6" fill="#aaffaa" opacity="0.9" filter="url(#softglow)"/><circle cx="130.9" cy="292.0" r="3" fill="#fff"/><circle cx="229.2" cy="174.9" r="6" fill="#aaffaa" opacity="0.9" filter="url(#softglow)"/><circle cx="229.2" cy="174.9" r="3" fill="#fff"/><circle cx="361.5" cy="98.5" r="6" fill="#aaffaa" opacity="0.9" filter="url(#softglow)"/><circle cx="361.5" cy="98.5" r="3" fill="#fff"/><defs><radialGradient id="serpcore" cx="40%" cy="35%"><stop offset="0%" stop-color="#aaffaa"/><stop offset="50%" stop-color="#2a8a4a"/><stop offset="100%" stop-color="#01200a"/></radialGradient></defs><circle cx="512" cy="512" r="200" fill="#44dd66" opacity="0.45" filter="url(#glow)"/><circle cx="512" cy="512" r="160" fill="url(#serpcore)" stroke="#1a5a2a" stroke-width="3"/><circle cx="512" cy="522" r="30" fill="none" stroke="#1a5a2a" stroke-width="1.2" opacity="0.55"/><circle cx="512" cy="529.3333333333334" r="52" fill="none" stroke="#1a5a2a" stroke-width="1.2" opacity="0.55"/><circle cx="512" cy="536.6666666666666" r="74" fill="none" stroke="#1a5a2a" stroke-width="1.2" opacity="0.55"/><circle cx="512" cy="544" r="96" fill="none" stroke="#1a5a2a" stroke-width="1.2" opacity="0.55"/><circle cx="512" cy="551.3333333333334" r="118" fill="none" stroke="#1a5a2a" stroke-width="1.2" opacity="0.55"/><circle cx="512" cy="558.6666666666666" r="140" fill="none" stroke="#1a5a2a" stroke-width="1.2" opacity="0.55"/><path d="M 512 512 Q 512 352 512 192" stroke="#2a8a4a" stroke-width="34" stroke-linecap="round" fill="none"/><path d="M 512 512 Q 512 352 512 192" stroke="#44dd66" stroke-width="14" stroke-linecap="round" fill="none" opacity="0.7"/><g transform="translate(512 192) rotate(-90.0)"><ellipse cx="0" cy="0" rx="50" ry="28" fill="#2a8a4a" stroke="#1a4a2a" stroke-width="2"/><ellipse cx="-10" cy="0" rx="40" ry="22" fill="#44dd66"/><circle cx="15" cy="-10" r="6" fill="#ffee44" filter="url(#softglow)"/><circle cx="15" cy="10" r="6" fill="#ffee44" filter="url(#softglow)"/><circle cx="15" cy="-10" r="2.5" fill="#000"/><circle cx="15" cy="10" r="2.5" fill="#000"/><polygon points="38,-6 44,-2 40,6" fill="#fff"/><polygon points="38,6 44,2 40,-6" fill="#fff"/></g><path d="M 512 512 Q 647 426 718 267" stroke="#2a8a4a" stroke-width="34" stroke-linecap="round" fill="none"/><path d="M 512 512 Q 647 426 718 267" stroke="#44dd66" stroke-width="14" stroke-linecap="round" fill="none" opacity="0.7"/><g transform="translate(718 267) rotate(-65.9)"><ellipse cx="0" cy="0" rx="50" ry="28" fill="#2a8a4a" stroke="#1a4a2a" stroke-width="2"/><ellipse cx="-10" cy="0" rx="40" ry="22" fill="#44dd66"/><circle cx="15" cy="-10" r="6" fill="#ffee44" filter="url(#softglow)"/><circle cx="15" cy="10" r="6" fill="#ffee44" filter="url(#softglow)"/><circle cx="15" cy="-10" r="2.5" fill="#000"/><circle cx="15" cy="10" r="2.5" fill="#000"/><polygon points="38,-6 44,-2 40,6" fill="#fff"/><polygon points="38,6 44,2 40,-6" fill="#fff"/></g><path d="M 512 512 Q 654 438 827 456" stroke="#2a8a4a" stroke-width="34" stroke-linecap="round" fill="none"/><path d="M 512 512 Q 654 438 827 456" stroke="#44dd66" stroke-width="14" stroke-linecap="round" fill="none" opacity="0.7"/><g transform="translate(827 456) rotate(6.0)"><ellipse cx="0" cy="0" rx="50" ry="28" fill="#2a8a4a" stroke="#1a4a2a" stroke-width="2"/><ellipse cx="-10" cy="0" rx="40" ry="22" fill="#44dd66"/><circle cx="15" cy="-10" r="6" fill="#ffee44" filter="url(#softglow)"/><circle cx="15" cy="10" r="6" fill="#ffee44" filter="url(#softglow)"/><circle cx="15" cy="-10" r="2.5" fill="#000"/><circle cx="15" cy="10" r="2.5" fill="#000"/><polygon points="38,-6 44,-2 40,6" fill="#fff"/><polygon points="38,6 44,2 40,-6" fill="#fff"/></g><path d="M 512 512 Q 650 593 789 672" stroke="#2a8a4a" stroke-width="34" stroke-linecap="round" fill="none"/><path d="M 512 512 Q 650 593 789 672" stroke="#44dd66" stroke-width="14" stroke-linecap="round" fill="none" opacity="0.7"/><g transform="translate(789 672) rotate(29.7)"><ellipse cx="0" cy="0" rx="50" ry="28" fill="#2a8a4a" stroke="#1a4a2a" stroke-width="2"/><ellipse cx="-10" cy="0" rx="40" ry="22" fill="#44dd66"/><circle cx="15" cy="-10" r="6" fill="#ffee44" filter="url(#softglow)"/><circle cx="15" cy="10" r="6" fill="#ffee44" filter="url(#softglow)"/><circle cx="15" cy="-10" r="2.5" fill="#000"/><circle cx="15" cy="10" r="2.5" fill="#000"/><polygon points="38,-6 44,-2 40,6" fill="#fff"/><polygon points="38,6 44,2 40,-6" fill="#fff"/></g><path d="M 512 512 Q 520 672 621 813" stroke="#2a8a4a" stroke-width="34" stroke-linecap="round" fill="none"/><path d="M 512 512 Q 520 672 621 813" stroke="#44dd66" stroke-width="14" stroke-linecap="round" fill="none" opacity="0.7"/><g transform="translate(621 813) rotate(54.2)"><ellipse cx="0" cy="0" rx="50" ry="28" fill="#2a8a4a" stroke="#1a4a2a" stroke-width="2"/><ellipse cx="-10" cy="0" rx="40" ry="22" fill="#44dd66"/><circle cx="15" cy="-10" r="6" fill="#ffee44" filter="url(#softglow)"/><circle cx="15" cy="10" r="6" fill="#ffee44" filter="url(#softglow)"/><circle cx="15" cy="-10" r="2.5" fill="#000"/><circle cx="15" cy="10" r="2.5" fill="#000"/><polygon points="38,-6 44,-2 40,6" fill="#fff"/><polygon points="38,6 44,2 40,-6" fill="#fff"/></g><path d="M 512 512 Q 505 672 403 813" stroke="#2a8a4a" stroke-width="34" stroke-linecap="round" fill="none"/><path d="M 512 512 Q 505 672 403 813" stroke="#44dd66" stroke-width="14" stroke-linecap="round" fill="none" opacity="0.7"/><g transform="translate(403 813) rotate(126.1)"><ellipse cx="0" cy="0" rx="50" ry="28" fill="#2a8a4a" stroke="#1a4a2a" stroke-width="2"/><ellipse cx="-10" cy="0" rx="40" ry="22" fill="#44dd66"/><circle cx="15" cy="-10" r="6" fill="#ffee44" filter="url(#softglow)"/><circle cx="15" cy="10" r="6" fill="#ffee44" filter="url(#softglow)"/><circle cx="15" cy="-10" r="2.5" fill="#000"/><circle cx="15" cy="10" r="2.5" fill="#000"/><polygon points="38,-6 44,-2 40,6" fill="#fff"/><polygon points="38,6 44,2 40,-6" fill="#fff"/></g><path d="M 512 512 Q 373 590 235 672" stroke="#2a8a4a" stroke-width="34" stroke-linecap="round" fill="none"/><path d="M 512 512 Q 373 590 235 672" stroke="#44dd66" stroke-width="14" stroke-linecap="round" fill="none" opacity="0.7"/><g transform="translate(235 672) rotate(149.3)"><ellipse cx="0" cy="0" rx="50" ry="28" fill="#2a8a4a" stroke="#1a4a2a" stroke-width="2"/><ellipse cx="-10" cy="0" rx="40" ry="22" fill="#44dd66"/><circle cx="15" cy="-10" r="6" fill="#ffee44" filter="url(#softglow)"/><circle cx="15" cy="10" r="6" fill="#ffee44" filter="url(#softglow)"/><circle cx="15" cy="-10" r="2.5" fill="#000"/><circle cx="15" cy="10" r="2.5" fill="#000"/><polygon points="38,-6 44,-2 40,6" fill="#fff"/><polygon points="38,6 44,2 40,-6" fill="#fff"/></g><path d="M 512 512 Q 369 439 197 456" stroke="#2a8a4a" stroke-width="34" stroke-linecap="round" fill="none"/><path d="M 512 512 Q 369 439 197 456" stroke="#44dd66" stroke-width="14" stroke-linecap="round" fill="none" opacity="0.7"/><g transform="translate(197 456) rotate(174.4)"><ellipse cx="0" cy="0" rx="50" ry="28" fill="#2a8a4a" stroke="#1a4a2a" stroke-width="2"/><ellipse cx="-10" cy="0" rx="40" ry="22" fill="#44dd66"/><circle cx="15" cy="-10" r="6" fill="#ffee44" filter="url(#softglow)"/><circle cx="15" cy="10" r="6" fill="#ffee44" filter="url(#softglow)"/><circle cx="15" cy="-10" r="2.5" fill="#000"/><circle cx="15" cy="10" r="2.5" fill="#000"/><polygon points="38,-6 44,-2 40,6" fill="#fff"/><polygon points="38,6 44,2 40,-6" fill="#fff"/></g><path d="M 512 512 Q 377 427 306 267" stroke="#2a8a4a" stroke-width="34" stroke-linecap="round" fill="none"/><path d="M 512 512 Q 377 427 306 267" stroke="#44dd66" stroke-width="14" stroke-linecap="round" fill="none" opacity="0.7"/><g transform="translate(306 267) rotate(-113.7)"><ellipse cx="0" cy="0" rx="50" ry="28" fill="#2a8a4a" stroke="#1a4a2a" stroke-width="2"/><ellipse cx="-10" cy="0" rx="40" ry="22" fill="#44dd66"/><circle cx="15" cy="-10" r="6" fill="#ffee44" filter="url(#softglow)"/><circle cx="15" cy="10" r="6" fill="#ffee44" filter="url(#softglow)"/><circle cx="15" cy="-10" r="2.5" fill="#000"/><circle cx="15" cy="10" r="2.5" fill="#000"/><polygon points="38,-6 44,-2 40,6" fill="#fff"/><polygon points="38,6 44,2 40,-6" fill="#fff"/></g><circle cx="198" cy="389" r="5.7" fill="#44dd66" opacity="0.32" filter="url(#softglow)"/><circle cx="86" cy="668" r="4.3" fill="#44dd66" opacity="0.22" filter="url(#softglow)"/><circle cx="515" cy="744" r="3.9" fill="#44dd66" opacity="0.33" filter="url(#softglow)"/><circle cx="151" cy="991" r="2.9" fill="#44dd66" opacity="0.27" filter="url(#softglow)"/><circle cx="664" cy="583" r="5.0" fill="#44dd66" opacity="0.14" filter="url(#softglow)"/><circle cx="178" cy="706" r="4.1" fill="#44dd66" opacity="0.16" filter="url(#softglow)"/><circle cx="442" cy="868" r="6.4" fill="#44dd66" opacity="0.33" filter="url(#softglow)"/><circle cx="641" cy="860" r="3.0" fill="#44dd66" opacity="0.28" filter="url(#softglow)"/><circle cx="983" cy="598" r="6.0" fill="#44dd66" opacity="0.34" filter="url(#softglow)"/><circle cx="248" cy="122" r="4.3" fill="#44dd66" opacity="0.13" filter="url(#softglow)"/><circle cx="978" cy="51" r="2.1" fill="#44dd66" opacity="0.10" filter="url(#softglow)"/><circle cx="995" cy="63" r="2.1" fill="#44dd66" opacity="0.21" filter="url(#softglow)"/><circle cx="279" cy="896" r="3.1" fill="#44dd66" opacity="0.24" filter="url(#softglow)"/><circle cx="442" cy="178" r="5.5" fill="#44dd66" opacity="0.17" filter="url(#softglow)"/><circle cx="999" cy="999" r="4.4" fill="#44dd66" opacity="0.13" filter="url(#softglow)"/><circle cx="767" cy="445" r="6.4" fill="#44dd66" opacity="0.24" filter="url(#softglow)"/><circle cx="913" cy="154" r="3.5" fill="#44dd66" opacity="0.15" filter="url(#softglow)"/><circle cx="402" cy="656" r="4.8" fill="#44dd66" opacity="0.20" filter="url(#softglow)"/><circle cx="696" cy="324" r="6.4" fill="#44dd66" opacity="0.11" filter="url(#softglow)"/><circle cx="291" cy="702" r="2.3" fill="#44dd66" opacity="0.14" filter="url(#softglow)"/><circle cx="304" cy="32" r="5.9" fill="#44dd66" opacity="0.18" filter="url(#softglow)"/><circle cx="839" cy="495" r="6.8" fill="#44dd66" opacity="0.16" filter="url(#softglow)"/><circle cx="312" cy="560" r="6.5" fill="#44dd66" opacity="0.22" filter="url(#softglow)"/><circle cx="362" cy="92" r="6.9" fill="#44dd66" opacity="0.33" filter="url(#softglow)"/><circle cx="809" cy="1012" r="3.8" fill="#44dd66" opacity="0.21" filter="url(#softglow)"/><circle cx="490" cy="440" r="6.4" fill="#44dd66" opacity="0.16" filter="url(#softglow)"/><circle cx="967" cy="53" r="5.6" fill="#44dd66" opacity="0.11" filter="url(#softglow)"/><circle cx="537" cy="753" r="4.2" fill="#44dd66" opacity="0.13" filter="url(#softglow)"/><circle cx="997" cy="970" r="3.5" fill="#44dd66" opacity="0.34" filter="url(#softglow)"/><circle cx="916" cy="328" r="4.6" fill="#44dd66" opacity="0.13" filter="url(#softglow)"/></svg>